<svg width="40" height="40" viewBox="0 0 40 40" fill="none" xmlns="http://www.w3.org/2000/svg">
<path d="M20 0C8.95179 0 0 8.95179 0 20C0 31.0482 8.95179 40 20 40C31.0482 40 40 31.0482 40 20C40 8.95179 31.0482 0 20 0ZM12.4107 28.7402C12.288 28.9495 12.1123 29.1228 11.9013 29.2427C11.6904 29.3626 11.4516 29.4249 11.2089 29.4232C10.9616 29.4254 10.7186 29.3586 10.5071 29.2304C10.3497 29.1391 10.2118 29.0177 10.1014 28.873C9.991 28.7283 9.91025 28.5633 9.8638 28.3873C9.81734 28.2114 9.80609 28.028 9.83069 27.8477C9.85529 27.6674 9.91525 27.4937 10.0071 27.3366L11.3723 25.067C11.4413 24.9498 11.5397 24.8528 11.6578 24.7854C11.7759 24.7181 11.9096 24.6828 12.0455 24.683H12.2473C13.2375 24.683 13.9304 25.2786 14.1321 25.8554L12.4107 28.7402ZM23.9688 24.2759L15.0286 24.2857H9.08661C8.89966 24.2865 8.7145 24.2493 8.54235 24.1764C8.37021 24.1035 8.21467 23.9963 8.08518 23.8615C7.95568 23.7267 7.85493 23.5669 7.78902 23.392C7.72312 23.217 7.69344 23.0305 7.70179 22.8438C7.73036 22.0938 8.38482 21.5259 9.13036 21.5259H13.4375L18.5438 12.8339L16.8902 10.017C16.5179 9.375 16.683 8.52857 17.3214 8.125C17.4788 8.02321 17.6552 7.95431 17.8399 7.92242C18.0246 7.89053 18.2138 7.89632 18.3962 7.93944C18.5786 7.98256 18.7504 8.06211 18.9013 8.17333C19.0521 8.28455 19.179 8.42512 19.2741 8.58661L20.158 10.0964H20.1679L21.0527 8.58661C21.1479 8.42596 21.2746 8.28614 21.425 8.17548C21.5755 8.06482 21.7466 7.98559 21.9284 7.94252C22.1101 7.89944 22.2986 7.89339 22.4827 7.92475C22.6669 7.9561 22.8428 8.0242 23 8.125C23.6348 8.52857 23.7982 9.375 23.4232 10.0196L21.7696 12.8366L20.1625 15.5768L16.6723 21.5286V21.5384H21.8161C22.4607 21.5384 23.2687 21.8848 23.5955 22.442L23.6241 22.5C23.9125 22.9902 24.0759 23.3268 24.0759 23.817C24.0712 23.9761 24.0357 24.1329 23.9714 24.2786L23.9688 24.2759ZM30.9107 24.2857H28.4902V24.2955L30.2598 27.3054C30.4501 27.6223 30.5084 28.0014 30.4221 28.3609C30.3357 28.7204 30.1117 29.0317 29.7982 29.2277C29.5809 29.3602 29.3313 29.4303 29.0768 29.4304C28.8348 29.4303 28.5969 29.3675 28.3864 29.2483C28.1758 29.1291 27.9996 28.9574 27.875 28.75L25.2598 24.2982L23.6348 21.5304L21.5384 17.9464C21.2347 17.4347 21.0697 16.8527 21.0595 16.2577C21.0493 15.6627 21.1944 15.0754 21.4804 14.5536C21.8946 13.8223 22.2116 13.6304 22.2116 13.6304L26.875 21.5179H30.8848C31.6348 21.5179 32.2786 22.0946 32.3134 22.8348C32.3206 23.023 32.2897 23.2107 32.2226 23.3866C32.1554 23.5626 32.0534 23.7231 31.9226 23.8587C31.7919 23.9942 31.6351 24.1019 31.4616 24.1753C31.2882 24.2486 31.1017 24.2862 30.9134 24.2857H30.9107Z" fill="black"/>
</svg>
