<svg width="414" height="2800" viewBox="0 0 414 2800" fill="none" xmlns="http://www.w3.org/2000/svg">
<g opacity="0.6" clip-path="url(#clip0)">
<path d="M720.661 1237.97C724.247 1284.49 655.581 1296.21 612.651 1373.03C575.475 1439.58 602.883 1474.67 562.597 1516.64C533.171 1547.31 485.435 1564.15 439.098 1552.13C388.004 1538.89 361.844 1496.37 355.754 1485.76C328.402 1438.22 334.78 1389.78 337.243 1372.92C347.407 1303.45 393.343 1262.05 415.37 1242.17C498.138 1167.53 632.465 1136 695.482 1194.95C703.739 1202.65 719.038 1216.97 720.661 1237.97Z" fill="url(#paint0_linear)"/>
</g>
<g opacity="0.6" clip-path="url(#clip1)">
<path d="M-299.55 792.17C-259.424 775.856 -230.551 844.768 -151.104 869.104C-82.2899 890.173 -58.6831 851.939 -10.7386 882.901C24.2927 905.513 52.0456 951.075 53.9307 1002.95C56.0141 1060.15 25.5102 1099.08 17.7814 1108.34C-16.8337 1149.87 -61.3466 1156.24 -76.9086 1158.21C-141.014 1166.28 -189.987 1129.23 -213.488 1111.47C-301.75 1044.74 -365.843 912.25 -330.77 830.205C-326.187 819.459 -317.666 799.539 -299.55 792.17Z" fill="url(#paint1_linear)"/>
</g>
<g opacity="0.6" clip-path="url(#clip2)">
<path d="M-290.55 1519.21C-250.424 1502.9 -221.551 1571.81 -142.104 1596.15C-73.2899 1617.22 -49.6831 1578.98 -1.73856 1609.95C33.2927 1632.56 61.0456 1678.12 62.9307 1730C65.0141 1787.2 34.5102 1826.13 26.7814 1835.38C-7.83369 1876.91 -52.3466 1883.29 -67.9086 1885.25C-132.014 1893.32 -180.987 1856.28 -204.488 1838.52C-292.75 1771.78 -356.843 1639.3 -321.77 1557.25C-317.187 1546.5 -308.666 1526.58 -290.55 1519.21Z" fill="url(#paint2_linear)"/>
</g>
<g opacity="0.6" clip-path="url(#clip3)">
<path d="M761.281 2435.31C748.458 2479.85 680.829 2462.38 614.429 2515.8C556.922 2562.07 570.116 2605.85 518.259 2628.09C480.377 2644.35 430.344 2640.26 391.62 2610.03C348.918 2576.7 339.457 2526.56 337.501 2514.23C328.677 2458.94 351.391 2416.73 359.523 2402.14C393.037 2342.03 449.93 2322.63 477.218 2313.32C579.736 2278.35 715.025 2304.54 752.905 2385.09C757.873 2395.63 767.066 2415.2 761.281 2435.31Z" fill="url(#paint3_linear)"/>
</g>
<g opacity="0.6" clip-path="url(#clip4)">
<path d="M-42.5505 182.847C-2.42377 166.533 26.4485 235.446 105.896 259.781C174.71 280.851 198.317 242.616 246.261 273.578C281.293 296.191 309.046 341.752 310.931 393.629C313.014 450.831 282.51 489.759 274.781 499.013C240.166 540.546 195.653 546.919 180.091 548.883C115.986 556.954 67.013 519.909 43.5119 502.151C-44.7505 435.413 -108.843 302.927 -73.7698 220.883C-69.1869 210.136 -60.6662 190.216 -42.5505 182.847Z" fill="url(#paint4_linear)"/>
</g>
<defs>
<linearGradient id="paint0_linear" x1="628.201" y1="1547.2" x2="448.51" y2="1230.41" gradientUnits="userSpaceOnUse">
<stop stop-color="#F3F7FF"/>
<stop offset="1" stop-color="#DEEEFE"/>
</linearGradient>
<linearGradient id="paint1_linear" x1="-1.43837" y1="805.797" x2="-269.961" y2="1036.66" gradientUnits="userSpaceOnUse">
<stop stop-color="#F3F7FF"/>
<stop offset="1" stop-color="#DEEEFE"/>
</linearGradient>
<linearGradient id="paint2_linear" x1="7.56163" y1="1532.84" x2="-260.961" y2="1763.71" gradientUnits="userSpaceOnUse">
<stop stop-color="#F3F7FF"/>
<stop offset="1" stop-color="#DEEEFE"/>
</linearGradient>
<linearGradient id="paint3_linear" x1="568.384" y1="2683.43" x2="531.287" y2="2314.15" gradientUnits="userSpaceOnUse">
<stop stop-color="#F3F7FF"/>
<stop offset="1" stop-color="#DEEEFE"/>
</linearGradient>
<linearGradient id="paint4_linear" x1="255.562" y1="196.475" x2="-12.961" y2="427.338" gradientUnits="userSpaceOnUse">
<stop stop-color="#F3F7FF"/>
<stop offset="1" stop-color="#DEEEFE"/>
</linearGradient>
<clipPath id="clip0">
<rect width="449.973" height="321.48" fill="white" transform="matrix(-0.869869 0.43002 -0.395245 -0.949953 794.86 1410.13)"/>
</clipPath>
<clipPath id="clip1">
<rect width="441.775" height="327.254" fill="white" transform="matrix(0.625946 0.811809 -0.71964 0.659279 -167.484 667.847)"/>
</clipPath>
<clipPath id="clip2">
<rect width="441.775" height="327.254" fill="white" transform="matrix(0.625946 0.811809 -0.71964 0.659279 -158.484 1394.89)"/>
</clipPath>
<clipPath id="clip3">
<rect width="439.839" height="328.587" fill="white" transform="matrix(-0.976454 0.0403205 -0.0354416 -1.01979 770.225 2625.27)"/>
</clipPath>
<clipPath id="clip4">
<rect width="441.775" height="327.254" fill="white" transform="matrix(0.625946 0.811809 -0.71964 0.659279 89.5155 58.5245)"/>
</clipPath>
</defs>
</svg>
