<svg width="253" height="116" viewBox="0 0 253 116" fill="none" xmlns="http://www.w3.org/2000/svg">
<path d="M252.5 20C252.5 22.4755 250.481 24.977 246.459 27.3545C242.47 29.7122 236.665 31.8527 229.447 33.6571C215.02 37.2638 195.063 39.5 173 39.5C150.937 39.5 130.98 37.2638 116.553 33.6571C109.335 31.8527 103.53 29.7122 99.5412 27.3545C95.5189 24.977 93.5 22.4755 93.5 20C93.5 17.5245 95.5189 15.023 99.5412 12.6455C103.53 10.2878 109.335 8.14728 116.553 6.34294C130.98 2.73616 150.937 0.5 173 0.5C195.063 0.5 215.02 2.73616 229.447 6.34294C236.665 8.14728 242.47 10.2878 246.459 12.6455C250.481 15.023 252.5 17.5245 252.5 20Z" fill="white" stroke="#EA212A"/>
<path d="M141.784 16.82C141.784 17.984 141.442 18.854 140.758 19.43C140.074 20.006 139.066 20.294 137.734 20.294H134.89V26H134.53V13.328H137.734C139.126 13.328 140.146 13.634 140.794 14.246C141.454 14.858 141.784 15.716 141.784 16.82ZM137.734 19.916C139.03 19.916 139.966 19.646 140.542 19.106C141.13 18.566 141.424 17.804 141.424 16.82C141.424 15.788 141.136 15.008 140.56 14.48C139.984 13.952 139.042 13.688 137.734 13.688H134.89V19.916H137.734ZM148.342 26.126C147.442 26.126 146.632 25.928 145.912 25.532C145.192 25.124 144.622 24.548 144.202 23.804C143.794 23.048 143.59 22.16 143.59 21.14C143.59 20.12 143.794 19.238 144.202 18.494C144.622 17.738 145.192 17.162 145.912 16.766C146.632 16.358 147.442 16.154 148.342 16.154C149.242 16.154 150.052 16.358 150.772 16.766C151.492 17.162 152.056 17.738 152.464 18.494C152.872 19.238 153.076 20.12 153.076 21.14C153.076 22.16 152.872 23.048 152.464 23.804C152.056 24.548 151.492 25.124 150.772 25.532C150.052 25.928 149.242 26.126 148.342 26.126ZM148.342 25.802C149.122 25.802 149.842 25.634 150.502 25.298C151.162 24.95 151.696 24.428 152.104 23.732C152.512 23.036 152.716 22.172 152.716 21.14C152.716 20.108 152.512 19.244 152.104 18.548C151.696 17.852 151.162 17.336 150.502 17C149.842 16.652 149.122 16.478 148.342 16.478C147.562 16.478 146.836 16.652 146.164 17C145.504 17.336 144.97 17.858 144.562 18.566C144.154 19.262 143.95 20.12 143.95 21.14C143.95 22.16 144.154 23.024 144.562 23.732C144.97 24.428 145.504 24.95 146.164 25.298C146.836 25.634 147.562 25.802 148.342 25.802ZM156.036 19.25C156.336 18.338 156.864 17.594 157.62 17.018C158.376 16.442 159.312 16.154 160.428 16.154C161.352 16.154 162.174 16.358 162.894 16.766C163.614 17.162 164.172 17.738 164.568 18.494C164.964 19.238 165.162 20.12 165.162 21.14C165.162 22.16 164.964 23.048 164.568 23.804C164.172 24.548 163.614 25.124 162.894 25.532C162.174 25.928 161.352 26.126 160.428 26.126C159.312 26.126 158.37 25.838 157.602 25.262C156.834 24.686 156.312 23.942 156.036 23.03V26H155.694V12.68H156.036V19.25ZM164.802 21.14C164.802 20.18 164.622 19.352 164.262 18.656C163.902 17.948 163.392 17.408 162.732 17.036C162.084 16.664 161.316 16.478 160.428 16.478C159.588 16.478 158.832 16.676 158.16 17.072C157.5 17.456 156.978 18.002 156.594 18.71C156.222 19.406 156.036 20.216 156.036 21.14C156.036 22.064 156.222 22.88 156.594 23.588C156.978 24.284 157.5 24.83 158.16 25.226C158.832 25.61 159.588 25.802 160.428 25.802C161.316 25.802 162.084 25.616 162.732 25.244C163.392 24.872 163.902 24.338 164.262 23.642C164.622 22.934 164.802 22.1 164.802 21.14ZM167.95 13.796C167.818 13.796 167.704 13.754 167.608 13.67C167.524 13.574 167.482 13.454 167.482 13.31C167.482 13.166 167.524 13.052 167.608 12.968C167.704 12.872 167.818 12.824 167.95 12.824C168.082 12.824 168.19 12.872 168.274 12.968C168.37 13.052 168.418 13.166 168.418 13.31C168.418 13.454 168.37 13.574 168.274 13.67C168.19 13.754 168.082 13.796 167.95 13.796ZM168.13 16.28V26H167.77V16.28H168.13ZM175.428 25.802C176.52 25.802 177.438 25.526 178.182 24.974C178.926 24.422 179.376 23.666 179.532 22.706H179.892C179.724 23.726 179.244 24.554 178.452 25.19C177.672 25.814 176.664 26.126 175.428 26.126C174.528 26.126 173.724 25.928 173.016 25.532C172.308 25.136 171.75 24.56 171.342 23.804C170.946 23.048 170.748 22.16 170.748 21.14C170.748 20.12 170.946 19.232 171.342 18.476C171.75 17.72 172.308 17.144 173.016 16.748C173.724 16.352 174.528 16.154 175.428 16.154C176.376 16.154 177.186 16.358 177.858 16.766C178.53 17.162 179.034 17.678 179.37 18.314C179.718 18.95 179.892 19.622 179.892 20.33C179.892 20.762 179.886 21.086 179.874 21.302H171.108C171.12 22.298 171.324 23.132 171.72 23.804C172.128 24.476 172.656 24.98 173.304 25.316C173.952 25.64 174.66 25.802 175.428 25.802ZM175.428 16.478C174.66 16.478 173.952 16.646 173.304 16.982C172.656 17.306 172.128 17.804 171.72 18.476C171.324 19.148 171.12 19.982 171.108 20.978H179.568C179.628 19.982 179.466 19.148 179.082 18.476C178.71 17.804 178.194 17.306 177.534 16.982C176.886 16.646 176.184 16.478 175.428 16.478ZM182.861 18.638C183.245 16.922 184.523 16.064 186.695 16.064V16.46H186.533C185.513 16.46 184.643 16.76 183.923 17.36C183.215 17.948 182.861 18.902 182.861 20.222V26H182.501V16.28H182.861V18.638ZM187.971 25.676H193.839V26H187.593V25.676L193.263 16.604H187.773V16.28H193.659V16.604L187.971 25.676Z" fill="black"/>
<path d="M207.646 26.3536C207.842 26.5488 208.158 26.5488 208.354 26.3536L211.536 23.1716C211.731 22.9763 211.731 22.6597 211.536 22.4645C211.34 22.2692 211.024 22.2692 210.828 22.4645L208 25.2929L205.172 22.4645C204.976 22.2692 204.66 22.2692 204.464 22.4645C204.269 22.6597 204.269 22.9763 204.464 23.1716L207.646 26.3536ZM207.5 12L207.5 26L208.5 26L208.5 12L207.5 12Z" fill="black"/>
<path d="M20 76C8.95179 76 0 84.9518 0 96C0 107.048 8.95179 116 20 116C31.0482 116 40 107.048 40 96C40 84.9518 31.0482 76 20 76ZM12.4107 104.74C12.288 104.95 12.1123 105.123 11.9013 105.243C11.6904 105.363 11.4516 105.425 11.2089 105.423C10.9616 105.425 10.7186 105.359 10.5071 105.23C10.3497 105.139 10.2118 105.018 10.1014 104.873C9.991 104.728 9.91025 104.563 9.8638 104.387C9.81734 104.211 9.80609 104.028 9.83069 103.848C9.85529 103.667 9.91525 103.494 10.0071 103.337L11.3723 101.067C11.4413 100.95 11.5397 100.853 11.6578 100.785C11.7759 100.718 11.9096 100.683 12.0455 100.683H12.2473C13.2375 100.683 13.9304 101.279 14.1321 101.855L12.4107 104.74ZM23.9688 100.276L15.0286 100.286H9.08661C8.89966 100.287 8.7145 100.249 8.54235 100.176C8.37021 100.103 8.21467 99.9963 8.08518 99.8615C7.95568 99.7267 7.85493 99.5669 7.78902 99.392C7.72312 99.217 7.69344 99.0305 7.70179 98.8438C7.73036 98.0938 8.38482 97.5259 9.13036 97.5259H13.4375L18.5438 88.8339L16.8902 86.017C16.5179 85.375 16.683 84.5286 17.3214 84.125C17.4788 84.0232 17.6552 83.9543 17.8399 83.9224C18.0246 83.8905 18.2138 83.8963 18.3962 83.9394C18.5786 83.9826 18.7504 84.0621 18.9013 84.1733C19.0521 84.2845 19.179 84.4251 19.2741 84.5866L20.158 86.0964H20.1679L21.0527 84.5866C21.1479 84.426 21.2746 84.2861 21.425 84.1755C21.5755 84.0648 21.7466 83.9856 21.9284 83.9425C22.1101 83.8994 22.2986 83.8934 22.4827 83.9247C22.6669 83.9561 22.8428 84.0242 23 84.125C23.6348 84.5286 23.7982 85.375 23.4232 86.0196L21.7696 88.8366L20.1625 91.5768L16.6723 97.5286V97.5384H21.8161C22.4607 97.5384 23.2687 97.8848 23.5955 98.442L23.6241 98.5C23.9125 98.9902 24.0759 99.3268 24.0759 99.817C24.0712 99.9761 24.0357 100.133 23.9714 100.279L23.9688 100.276ZM30.9107 100.286H28.4902V100.296L30.2598 103.305C30.4501 103.622 30.5084 104.001 30.4221 104.361C30.3357 104.72 30.1117 105.032 29.7982 105.228C29.5809 105.36 29.3313 105.43 29.0768 105.43C28.8348 105.43 28.5969 105.368 28.3864 105.248C28.1758 105.129 27.9996 104.957 27.875 104.75L25.2598 100.298L23.6348 97.5304L21.5384 93.9464C21.2347 93.4347 21.0697 92.8527 21.0595 92.2577C21.0493 91.6627 21.1944 91.0754 21.4804 90.5536C21.8946 89.8223 22.2116 89.6304 22.2116 89.6304L26.875 97.5179H30.8848C31.6348 97.5179 32.2786 98.0946 32.3134 98.8348C32.3206 99.023 32.2897 99.2107 32.2226 99.3866C32.1554 99.5626 32.0534 99.7231 31.9226 99.8587C31.7919 99.9942 31.6351 100.102 31.4616 100.175C31.2882 100.249 31.1017 100.286 30.9134 100.286H30.9107Z" fill="black"/>
<path d="M39.7643 16.9179L39.5586 16.0616H20.5879V23.9384H31.9226C30.7458 29.4205 25.2851 32.3062 20.8246 32.3062C17.5791 32.3062 14.1579 30.967 11.8935 28.8143C10.6988 27.6604 9.74785 26.2866 9.09505 24.7717C8.44226 23.2568 8.10044 21.6304 8.08919 19.9857C8.08919 16.6679 9.6091 13.3491 11.8207 11.1661C14.0323 8.98304 17.3725 7.76161 20.6935 7.76161C24.4969 7.76161 27.2228 9.74286 28.2421 10.6464L33.9477 5.07857C32.2739 3.63571 27.676 0 20.5097 0C14.9807 0 9.67918 2.07768 5.80387 5.86696C1.97952 9.59821 0 14.9938 0 20C0 25.0063 1.87304 30.1321 5.57907 33.8929C9.53902 37.9036 15.1472 40 20.922 40C26.1761 40 31.1563 37.9804 34.7058 34.3161C38.1952 30.7089 40 25.7179 40 20.4857C40 18.283 39.7743 16.975 39.7643 16.9179Z" fill="black"/>
<path d="M252.5 96C252.5 98.4755 250.481 100.977 246.459 103.354C242.47 105.712 236.665 107.853 229.447 109.657C215.02 113.264 195.063 115.5 173 115.5C150.937 115.5 130.98 113.264 116.553 109.657C109.335 107.853 103.53 105.712 99.5412 103.354C95.5189 100.977 93.5 98.4755 93.5 96C93.5 93.5245 95.5189 91.023 99.5412 88.6455C103.53 86.2878 109.335 84.1473 116.553 82.3429C130.98 78.7362 150.937 76.5 173 76.5C195.063 76.5 215.02 78.7362 229.447 82.3429C236.665 84.1473 242.47 86.2878 246.459 88.6455C250.481 91.023 252.5 93.5245 252.5 96Z" fill="white" stroke="#EA212A"/>
<path d="M141.784 92.82C141.784 93.984 141.442 94.854 140.758 95.43C140.074 96.006 139.066 96.294 137.734 96.294H134.89V102H134.53V89.328H137.734C139.126 89.328 140.146 89.634 140.794 90.246C141.454 90.858 141.784 91.716 141.784 92.82ZM137.734 95.916C139.03 95.916 139.966 95.646 140.542 95.106C141.13 94.566 141.424 93.804 141.424 92.82C141.424 91.788 141.136 91.008 140.56 90.48C139.984 89.952 139.042 89.688 137.734 89.688H134.89V95.916H137.734ZM148.342 102.126C147.442 102.126 146.632 101.928 145.912 101.532C145.192 101.124 144.622 100.548 144.202 99.804C143.794 99.048 143.59 98.16 143.59 97.14C143.59 96.12 143.794 95.238 144.202 94.494C144.622 93.738 145.192 93.162 145.912 92.766C146.632 92.358 147.442 92.154 148.342 92.154C149.242 92.154 150.052 92.358 150.772 92.766C151.492 93.162 152.056 93.738 152.464 94.494C152.872 95.238 153.076 96.12 153.076 97.14C153.076 98.16 152.872 99.048 152.464 99.804C152.056 100.548 151.492 101.124 150.772 101.532C150.052 101.928 149.242 102.126 148.342 102.126ZM148.342 101.802C149.122 101.802 149.842 101.634 150.502 101.298C151.162 100.95 151.696 100.428 152.104 99.732C152.512 99.036 152.716 98.172 152.716 97.14C152.716 96.108 152.512 95.244 152.104 94.548C151.696 93.852 151.162 93.336 150.502 93C149.842 92.652 149.122 92.478 148.342 92.478C147.562 92.478 146.836 92.652 146.164 93C145.504 93.336 144.97 93.858 144.562 94.566C144.154 95.262 143.95 96.12 143.95 97.14C143.95 98.16 144.154 99.024 144.562 99.732C144.97 100.428 145.504 100.95 146.164 101.298C146.836 101.634 147.562 101.802 148.342 101.802ZM156.036 95.25C156.336 94.338 156.864 93.594 157.62 93.018C158.376 92.442 159.312 92.154 160.428 92.154C161.352 92.154 162.174 92.358 162.894 92.766C163.614 93.162 164.172 93.738 164.568 94.494C164.964 95.238 165.162 96.12 165.162 97.14C165.162 98.16 164.964 99.048 164.568 99.804C164.172 100.548 163.614 101.124 162.894 101.532C162.174 101.928 161.352 102.126 160.428 102.126C159.312 102.126 158.37 101.838 157.602 101.262C156.834 100.686 156.312 99.942 156.036 99.03V102H155.694V88.68H156.036V95.25ZM164.802 97.14C164.802 96.18 164.622 95.352 164.262 94.656C163.902 93.948 163.392 93.408 162.732 93.036C162.084 92.664 161.316 92.478 160.428 92.478C159.588 92.478 158.832 92.676 158.16 93.072C157.5 93.456 156.978 94.002 156.594 94.71C156.222 95.406 156.036 96.216 156.036 97.14C156.036 98.064 156.222 98.88 156.594 99.588C156.978 100.284 157.5 100.83 158.16 101.226C158.832 101.61 159.588 101.802 160.428 101.802C161.316 101.802 162.084 101.616 162.732 101.244C163.392 100.872 163.902 100.338 164.262 99.642C164.622 98.934 164.802 98.1 164.802 97.14ZM167.95 89.796C167.818 89.796 167.704 89.754 167.608 89.67C167.524 89.574 167.482 89.454 167.482 89.31C167.482 89.166 167.524 89.052 167.608 88.968C167.704 88.872 167.818 88.824 167.95 88.824C168.082 88.824 168.19 88.872 168.274 88.968C168.37 89.052 168.418 89.166 168.418 89.31C168.418 89.454 168.37 89.574 168.274 89.67C168.19 89.754 168.082 89.796 167.95 89.796ZM168.13 92.28V102H167.77V92.28H168.13ZM175.428 101.802C176.52 101.802 177.438 101.526 178.182 100.974C178.926 100.422 179.376 99.666 179.532 98.706H179.892C179.724 99.726 179.244 100.554 178.452 101.19C177.672 101.814 176.664 102.126 175.428 102.126C174.528 102.126 173.724 101.928 173.016 101.532C172.308 101.136 171.75 100.56 171.342 99.804C170.946 99.048 170.748 98.16 170.748 97.14C170.748 96.12 170.946 95.232 171.342 94.476C171.75 93.72 172.308 93.144 173.016 92.748C173.724 92.352 174.528 92.154 175.428 92.154C176.376 92.154 177.186 92.358 177.858 92.766C178.53 93.162 179.034 93.678 179.37 94.314C179.718 94.95 179.892 95.622 179.892 96.33C179.892 96.762 179.886 97.086 179.874 97.302H171.108C171.12 98.298 171.324 99.132 171.72 99.804C172.128 100.476 172.656 100.98 173.304 101.316C173.952 101.64 174.66 101.802 175.428 101.802ZM175.428 92.478C174.66 92.478 173.952 92.646 173.304 92.982C172.656 93.306 172.128 93.804 171.72 94.476C171.324 95.148 171.12 95.982 171.108 96.978H179.568C179.628 95.982 179.466 95.148 179.082 94.476C178.71 93.804 178.194 93.306 177.534 92.982C176.886 92.646 176.184 92.478 175.428 92.478ZM182.861 94.638C183.245 92.922 184.523 92.064 186.695 92.064V92.46H186.533C185.513 92.46 184.643 92.76 183.923 93.36C183.215 93.948 182.861 94.902 182.861 96.222V102H182.501V92.28H182.861V94.638ZM187.971 101.676H193.839V102H187.593V101.676L193.263 92.604H187.773V92.28H193.659V92.604L187.971 101.676Z" fill="black"/>
<path d="M207.646 104.354C207.842 104.549 208.158 104.549 208.354 104.354L211.536 101.172C211.731 100.976 211.731 100.66 211.536 100.464C211.34 100.269 211.024 100.269 210.828 100.464L208 103.293L205.172 100.464C204.976 100.269 204.66 100.269 204.464 100.464C204.269 100.66 204.269 100.976 204.464 101.172L207.646 104.354ZM207.5 90L207.5 104L208.5 104L208.5 90L207.5 90Z" fill="black"/>
</svg>
