<svg width="187" height="44" viewBox="0 0 187 44" fill="none" xmlns="http://www.w3.org/2000/svg">
<rect width="187" height="44" rx="22" fill="#EA212A"/>
<path d="M32.116 16.242C33.18 16.242 34.0993 16.4427 34.874 16.844C35.658 17.236 36.2553 17.8007 36.666 18.538C37.086 19.2753 37.296 20.1433 37.296 21.142C37.296 22.1407 37.086 23.0087 36.666 23.746C36.2553 24.474 35.658 25.034 34.874 25.426C34.0993 25.8087 33.18 26 32.116 26H29.078V16.242H32.116ZM32.116 24.95C33.376 24.95 34.3373 24.6187 35 23.956C35.6627 23.284 35.994 22.346 35.994 21.142C35.994 19.9287 35.658 18.9813 34.986 18.3C34.3233 17.6187 33.3667 17.278 32.116 17.278H30.352V24.95H32.116ZM42.3224 26.126C41.6038 26.126 40.9504 25.9627 40.3624 25.636C39.7838 25.3093 39.3264 24.8473 38.9904 24.25C38.6638 23.6433 38.5004 22.9433 38.5004 22.15C38.5004 21.366 38.6684 20.6753 39.0044 20.078C39.3498 19.4713 39.8164 19.0093 40.4044 18.692C40.9924 18.3653 41.6504 18.202 42.3784 18.202C43.1064 18.202 43.7644 18.3653 44.3524 18.692C44.9404 19.0093 45.4024 19.4667 45.7384 20.064C46.0838 20.6613 46.2564 21.3567 46.2564 22.15C46.2564 22.9433 46.0791 23.6433 45.7244 24.25C45.3791 24.8473 44.9078 25.3093 44.3104 25.636C43.7131 25.9627 43.0504 26.126 42.3224 26.126ZM42.3224 25.006C42.7798 25.006 43.2091 24.8987 43.6104 24.684C44.0118 24.4693 44.3338 24.1473 44.5764 23.718C44.8284 23.2887 44.9544 22.766 44.9544 22.15C44.9544 21.534 44.8331 21.0113 44.5904 20.582C44.3478 20.1527 44.0304 19.8353 43.6384 19.63C43.2464 19.4153 42.8218 19.308 42.3644 19.308C41.8978 19.308 41.4684 19.4153 41.0764 19.63C40.6938 19.8353 40.3858 20.1527 40.1524 20.582C39.9191 21.0113 39.8024 21.534 39.8024 22.15C39.8024 22.7753 39.9144 23.3027 40.1384 23.732C40.3718 24.1613 40.6798 24.4833 41.0624 24.698C41.4451 24.9033 41.8651 25.006 42.3224 25.006ZM58.1515 18.328L55.7575 26H54.4415L52.5935 19.91L50.7455 26H49.4295L47.0215 18.328H48.3235L50.0875 24.768L51.9915 18.328H53.2935L55.1555 24.782L56.8915 18.328H58.1515ZM60.0739 17.082C59.8312 17.082 59.6259 16.998 59.4579 16.83C59.2899 16.662 59.2059 16.4567 59.2059 16.214C59.2059 15.9713 59.2899 15.766 59.4579 15.598C59.6259 15.43 59.8312 15.346 60.0739 15.346C60.3072 15.346 60.5032 15.43 60.6619 15.598C60.8299 15.766 60.9139 15.9713 60.9139 16.214C60.9139 16.4567 60.8299 16.662 60.6619 16.83C60.5032 16.998 60.3072 17.082 60.0739 17.082ZM60.6899 18.328V26H59.4159V18.328H60.6899ZM69.8612 21.87C69.8612 22.1127 69.8472 22.3693 69.8192 22.64H63.6872C63.7339 23.396 63.9905 23.9887 64.4572 24.418C64.9332 24.838 65.5072 25.048 66.1792 25.048C66.7299 25.048 67.1872 24.922 67.5512 24.67C67.9245 24.4087 68.1859 24.0633 68.3352 23.634H69.7072C69.5019 24.3713 69.0912 24.9733 68.4752 25.44C67.8592 25.8973 67.0939 26.126 66.1792 26.126C65.4512 26.126 64.7979 25.9627 64.2192 25.636C63.6499 25.3093 63.2019 24.8473 62.8752 24.25C62.5485 23.6433 62.3852 22.9433 62.3852 22.15C62.3852 21.3567 62.5439 20.6613 62.8612 20.064C63.1785 19.4667 63.6219 19.0093 64.1912 18.692C64.7699 18.3653 65.4325 18.202 66.1792 18.202C66.9072 18.202 67.5512 18.3607 68.1112 18.678C68.6712 18.9953 69.1005 19.434 69.3992 19.994C69.7072 20.5447 69.8612 21.17 69.8612 21.87ZM68.5452 21.604C68.5452 21.1187 68.4379 20.7033 68.2232 20.358C68.0085 20.0033 67.7145 19.7373 67.3412 19.56C66.9772 19.3733 66.5712 19.28 66.1232 19.28C65.4792 19.28 64.9285 19.4853 64.4712 19.896C64.0232 20.3067 63.7665 20.876 63.7012 21.604H68.5452ZM71.0668 22.136C71.0668 21.352 71.2255 20.666 71.5428 20.078C71.8602 19.4807 72.2942 19.0187 72.8448 18.692C73.4048 18.3653 74.0302 18.202 74.7208 18.202C75.3182 18.202 75.8735 18.342 76.3868 18.622C76.9002 18.8927 77.2922 19.252 77.5628 19.7V15.64H78.8508V26H77.5628V24.558C77.3108 25.0153 76.9375 25.3933 76.4428 25.692C75.9482 25.9813 75.3695 26.126 74.7068 26.126C74.0255 26.126 73.4048 25.958 72.8448 25.622C72.2942 25.286 71.8602 24.8147 71.5428 24.208C71.2255 23.6013 71.0668 22.9107 71.0668 22.136ZM77.5628 22.15C77.5628 21.5713 77.4462 21.0673 77.2128 20.638C76.9795 20.2087 76.6622 19.882 76.2608 19.658C75.8688 19.4247 75.4348 19.308 74.9588 19.308C74.4828 19.308 74.0488 19.42 73.6568 19.644C73.2648 19.868 72.9522 20.1947 72.7188 20.624C72.4855 21.0533 72.3688 21.5573 72.3688 22.136C72.3688 22.724 72.4855 23.2373 72.7188 23.676C72.9522 24.1053 73.2648 24.4367 73.6568 24.67C74.0488 24.894 74.4828 25.006 74.9588 25.006C75.4348 25.006 75.8688 24.894 76.2608 24.67C76.6622 24.4367 76.9795 24.1053 77.2128 23.676C77.4462 23.2373 77.5628 22.7287 77.5628 22.15ZM81.9558 24.95H85.7218V26H80.4998V24.95L84.2238 19.364H80.5278V18.328H85.6938V19.364L81.9558 24.95ZM93.8233 26.126C93.2353 26.126 92.708 26.028 92.2413 25.832C91.7746 25.6267 91.406 25.3467 91.1353 24.992C90.8646 24.628 90.7153 24.2127 90.6873 23.746H92.0033C92.0406 24.1287 92.218 24.4413 92.5353 24.684C92.862 24.9267 93.2866 25.048 93.8093 25.048C94.2946 25.048 94.6773 24.9407 94.9573 24.726C95.2373 24.5113 95.3773 24.2407 95.3773 23.914C95.3773 23.578 95.228 23.3307 94.9293 23.172C94.6306 23.004 94.1686 22.8407 93.5433 22.682C92.974 22.5327 92.5073 22.3833 92.1433 22.234C91.7886 22.0753 91.4806 21.8467 91.2193 21.548C90.9673 21.24 90.8413 20.8387 90.8413 20.344C90.8413 19.952 90.958 19.5927 91.1913 19.266C91.4246 18.9393 91.756 18.6827 92.1853 18.496C92.6146 18.3 93.1046 18.202 93.6553 18.202C94.5046 18.202 95.1906 18.4167 95.7133 18.846C96.236 19.2753 96.516 19.8633 96.5533 20.61H95.2793C95.2513 20.2087 95.088 19.8867 94.7893 19.644C94.5 19.4013 94.108 19.28 93.6133 19.28C93.156 19.28 92.792 19.378 92.5213 19.574C92.2506 19.77 92.1153 20.0267 92.1153 20.344C92.1153 20.596 92.1946 20.806 92.3533 20.974C92.5213 21.1327 92.7266 21.2633 92.9693 21.366C93.2213 21.4593 93.5666 21.5667 94.0053 21.688C94.556 21.8373 95.004 21.9867 95.3493 22.136C95.6946 22.276 95.9886 22.4907 96.2313 22.78C96.4833 23.0693 96.614 23.4473 96.6233 23.914C96.6233 24.334 96.5066 24.712 96.2733 25.048C96.04 25.384 95.7086 25.65 95.2793 25.846C94.8593 26.0327 94.374 26.126 93.8233 26.126ZM99.0798 17.082C98.8371 17.082 98.6318 16.998 98.4638 16.83C98.2958 16.662 98.2118 16.4567 98.2118 16.214C98.2118 15.9713 98.2958 15.766 98.4638 15.598C98.6318 15.43 98.8371 15.346 99.0798 15.346C99.3131 15.346 99.5091 15.43 99.6678 15.598C99.8358 15.766 99.9198 15.9713 99.9198 16.214C99.9198 16.4567 99.8358 16.662 99.6678 16.83C99.5091 16.998 99.3131 17.082 99.0798 17.082ZM99.6958 18.328V26H98.4218V18.328H99.6958ZM108.867 21.87C108.867 22.1127 108.853 22.3693 108.825 22.64H102.693C102.74 23.396 102.996 23.9887 103.463 24.418C103.939 24.838 104.513 25.048 105.185 25.048C105.736 25.048 106.193 24.922 106.557 24.67C106.93 24.4087 107.192 24.0633 107.341 23.634H108.713C108.554 24.2033 108.265 24.698 107.845 25.118C107.434 25.5287 106.916 25.818 106.291 25.986L105.899 26.182C105.339 26.4527 105.059 26.7793 105.059 27.162C105.059 27.3767 105.134 27.54 105.283 27.652C105.432 27.7733 105.633 27.834 105.885 27.834C106.146 27.834 106.45 27.7733 106.795 27.652V28.492C106.422 28.6227 106.062 28.688 105.717 28.688C105.241 28.688 104.835 28.5713 104.499 28.338C104.172 28.114 104.009 27.764 104.009 27.288C104.009 26.8307 104.21 26.4293 104.611 26.084C103.976 26 103.416 25.79 102.931 25.454C102.446 25.1087 102.068 24.656 101.797 24.096C101.526 23.5267 101.391 22.878 101.391 22.15C101.391 21.3567 101.55 20.6613 101.867 20.064C102.184 19.4667 102.628 19.0093 103.197 18.692C103.776 18.3653 104.438 18.202 105.185 18.202C105.913 18.202 106.557 18.3607 107.117 18.678C107.677 18.9953 108.106 19.434 108.405 19.994C108.713 20.5447 108.867 21.17 108.867 21.87ZM107.551 21.604C107.551 21.1187 107.444 20.7033 107.229 20.358C107.014 20.0033 106.72 19.7373 106.347 19.56C105.983 19.3733 105.577 19.28 105.129 19.28C104.485 19.28 103.934 19.4853 103.477 19.896C103.029 20.3067 102.772 20.876 102.707 21.604H107.551ZM124.501 18.328L122.107 26H120.791L118.943 19.91L117.095 26H115.779L113.371 18.328H114.673L116.437 24.768L118.341 18.328H119.643L121.505 24.782L123.241 18.328H124.501ZM126.424 17.082C126.181 17.082 125.976 16.998 125.808 16.83C125.64 16.662 125.556 16.4567 125.556 16.214C125.556 15.9713 125.64 15.766 125.808 15.598C125.976 15.43 126.181 15.346 126.424 15.346C126.657 15.346 126.853 15.43 127.012 15.598C127.18 15.766 127.264 15.9713 127.264 16.214C127.264 16.4567 127.18 16.662 127.012 16.83C126.853 16.998 126.657 17.082 126.424 17.082ZM127.04 18.328V26H125.766V18.328H127.04ZM136.211 21.87C136.211 22.1127 136.197 22.3693 136.169 22.64H130.037C130.083 23.396 130.34 23.9887 130.807 24.418C131.283 24.838 131.857 25.048 132.529 25.048C133.079 25.048 133.537 24.922 133.901 24.67C134.274 24.4087 134.535 24.0633 134.685 23.634H136.057C135.898 24.2033 135.609 24.698 135.189 25.118C134.778 25.5287 134.26 25.818 133.635 25.986L133.243 26.182C132.683 26.4527 132.403 26.7793 132.403 27.162C132.403 27.3767 132.477 27.54 132.627 27.652C132.776 27.7733 132.977 27.834 133.229 27.834C133.49 27.834 133.793 27.7733 134.139 27.652V28.492C133.765 28.6227 133.406 28.688 133.061 28.688C132.585 28.688 132.179 28.5713 131.843 28.338C131.516 28.114 131.353 27.764 131.353 27.288C131.353 26.8307 131.553 26.4293 131.955 26.084C131.32 26 130.76 25.79 130.275 25.454C129.789 25.1087 129.411 24.656 129.141 24.096C128.87 23.5267 128.735 22.878 128.735 22.15C128.735 21.3567 128.893 20.6613 129.211 20.064C129.528 19.4667 129.971 19.0093 130.541 18.692C131.119 18.3653 131.782 18.202 132.529 18.202C133.257 18.202 133.901 18.3607 134.461 18.678C135.021 18.9953 135.45 19.434 135.749 19.994C136.057 20.5447 136.211 21.17 136.211 21.87ZM134.895 21.604C134.895 21.1187 134.787 20.7033 134.573 20.358C134.358 20.0033 134.064 19.7373 133.691 19.56C133.327 19.3733 132.921 19.28 132.473 19.28C131.829 19.28 131.278 19.4853 130.821 19.896C130.373 20.3067 130.116 20.876 130.051 21.604H134.895ZM137.416 22.15C137.416 21.3567 137.575 20.666 137.892 20.078C138.21 19.4807 138.648 19.0187 139.208 18.692C139.778 18.3653 140.426 18.202 141.154 18.202C142.097 18.202 142.872 18.4307 143.478 18.888C144.094 19.3453 144.5 19.98 144.696 20.792H143.324C143.194 20.3253 142.937 19.9567 142.554 19.686C142.181 19.4153 141.714 19.28 141.154 19.28C140.426 19.28 139.838 19.532 139.39 20.036C138.942 20.5307 138.718 21.2353 138.718 22.15C138.718 23.074 138.942 23.788 139.39 24.292C139.838 24.796 140.426 25.048 141.154 25.048C141.714 25.048 142.181 24.9173 142.554 24.656C142.928 24.3947 143.184 24.0213 143.324 23.536H144.696C144.491 24.32 144.08 24.95 143.464 25.426C142.848 25.8927 142.078 26.126 141.154 26.126C140.426 26.126 139.778 25.9627 139.208 25.636C138.648 25.3093 138.21 24.8473 137.892 24.25C137.575 23.6527 137.416 22.9527 137.416 22.15ZM153.396 21.87C153.396 22.1127 153.382 22.3693 153.354 22.64H147.222C147.269 23.396 147.526 23.9887 147.992 24.418C148.468 24.838 149.042 25.048 149.714 25.048C150.265 25.048 150.722 24.922 151.086 24.67C151.46 24.4087 151.721 24.0633 151.87 23.634H153.242C153.037 24.3713 152.626 24.9733 152.01 25.44C151.394 25.8973 150.629 26.126 149.714 26.126C148.986 26.126 148.333 25.9627 147.754 25.636C147.185 25.3093 146.737 24.8473 146.41 24.25C146.084 23.6433 145.92 22.9433 145.92 22.15C145.92 21.3567 146.079 20.6613 146.396 20.064C146.714 19.4667 147.157 19.0093 147.726 18.692C148.305 18.3653 148.968 18.202 149.714 18.202C150.442 18.202 151.086 18.3607 151.646 18.678C152.206 18.9953 152.636 19.434 152.934 19.994C153.242 20.5447 153.396 21.17 153.396 21.87ZM152.08 21.604C152.08 21.1187 151.973 20.7033 151.758 20.358C151.544 20.0033 151.25 19.7373 150.876 19.56C150.512 19.3733 150.106 19.28 149.658 19.28C149.014 19.28 148.464 19.4853 148.006 19.896C147.558 20.3067 147.302 20.876 147.236 21.604H152.08ZM155.764 17.082C155.521 17.082 155.316 16.998 155.148 16.83C154.989 16.662 154.91 16.4567 154.91 16.214C154.91 15.9713 154.989 15.766 155.148 15.598C155.316 15.43 155.521 15.346 155.764 15.346C156.007 15.346 156.207 15.43 156.366 15.598C156.534 15.766 156.618 15.9713 156.618 16.214C156.618 16.4567 156.534 16.662 156.366 16.83C156.207 16.998 156.007 17.082 155.764 17.082ZM156.394 27.666C156.394 28.3473 156.221 28.8467 155.876 29.164C155.531 29.4813 155.027 29.64 154.364 29.64H153.622V28.562H154.154C154.509 28.562 154.756 28.492 154.896 28.352C155.045 28.212 155.12 27.974 155.12 27.638V18.328H156.394V27.666Z" fill="white"/>
</svg>
