<svg width="414" height="99" viewBox="0 0 414 99" fill="none" xmlns="http://www.w3.org/2000/svg">
<rect width="414" height="99" rx="49.5" fill="#EA212A"/>
<path d="M112.174 35.363C113.77 35.363 115.149 35.664 116.311 36.266C117.487 36.854 118.383 37.701 118.999 38.807C119.629 39.913 119.944 41.215 119.944 42.713C119.944 44.211 119.629 45.513 118.999 46.619C118.383 47.711 117.487 48.551 116.311 49.139C115.149 49.713 113.77 50 112.174 50H107.617V35.363H112.174ZM112.174 48.425C114.064 48.425 115.506 47.928 116.5 46.934C117.494 45.926 117.991 44.519 117.991 42.713C117.991 40.893 117.487 39.472 116.479 38.45C115.485 37.428 114.05 36.917 112.174 36.917H109.528V48.425H112.174ZM127.484 50.189C126.406 50.189 125.426 49.944 124.544 49.454C123.676 48.964 122.99 48.271 122.486 47.375C121.996 46.465 121.751 45.415 121.751 44.225C121.751 43.049 122.003 42.013 122.507 41.117C123.025 40.207 123.725 39.514 124.607 39.038C125.489 38.548 126.476 38.303 127.568 38.303C128.66 38.303 129.647 38.548 130.529 39.038C131.411 39.514 132.104 40.2 132.608 41.096C133.126 41.992 133.385 43.035 133.385 44.225C133.385 45.415 133.119 46.465 132.587 47.375C132.069 48.271 131.362 48.964 130.466 49.454C129.57 49.944 128.576 50.189 127.484 50.189ZM127.484 48.509C128.17 48.509 128.814 48.348 129.416 48.026C130.018 47.704 130.501 47.221 130.865 46.577C131.243 45.933 131.432 45.149 131.432 44.225C131.432 43.301 131.25 42.517 130.886 41.873C130.522 41.229 130.046 40.753 129.458 40.445C128.87 40.123 128.233 39.962 127.547 39.962C126.847 39.962 126.203 40.123 125.615 40.445C125.041 40.753 124.579 41.229 124.229 41.873C123.879 42.517 123.704 43.301 123.704 44.225C123.704 45.163 123.872 45.954 124.208 46.598C124.558 47.242 125.02 47.725 125.594 48.047C126.168 48.355 126.798 48.509 127.484 48.509ZM151.227 38.492L147.636 50H145.662L142.89 40.865L140.118 50H138.144L134.532 38.492H136.485L139.131 48.152L141.987 38.492H143.94L146.733 48.173L149.337 38.492H151.227ZM154.111 36.623C153.747 36.623 153.439 36.497 153.187 36.245C152.935 35.993 152.809 35.685 152.809 35.321C152.809 34.957 152.935 34.649 153.187 34.397C153.439 34.145 153.747 34.019 154.111 34.019C154.461 34.019 154.755 34.145 154.993 34.397C155.245 34.649 155.371 34.957 155.371 35.321C155.371 35.685 155.245 35.993 154.993 36.245C154.755 36.497 154.461 36.623 154.111 36.623ZM155.035 38.492V50H153.124V38.492H155.035ZM168.792 43.805C168.792 44.169 168.771 44.554 168.729 44.96H159.531C159.601 46.094 159.986 46.983 160.686 47.627C161.4 48.257 162.261 48.572 163.269 48.572C164.095 48.572 164.781 48.383 165.327 48.005C165.887 47.613 166.279 47.095 166.503 46.451H168.561C168.253 47.557 167.637 48.46 166.713 49.16C165.789 49.846 164.641 50.189 163.269 50.189C162.177 50.189 161.197 49.944 160.329 49.454C159.475 48.964 158.803 48.271 158.313 47.375C157.823 46.465 157.578 45.415 157.578 44.225C157.578 43.035 157.816 41.992 158.292 41.096C158.768 40.2 159.433 39.514 160.287 39.038C161.155 38.548 162.149 38.303 163.269 38.303C164.361 38.303 165.327 38.541 166.167 39.017C167.007 39.493 167.651 40.151 168.099 40.991C168.561 41.817 168.792 42.755 168.792 43.805ZM166.818 43.406C166.818 42.678 166.657 42.055 166.335 41.537C166.013 41.005 165.572 40.606 165.012 40.34C164.466 40.06 163.857 39.92 163.185 39.92C162.219 39.92 161.393 40.228 160.707 40.844C160.035 41.46 159.65 42.314 159.552 43.406H166.818ZM170.6 44.204C170.6 43.028 170.838 41.999 171.314 41.117C171.79 40.221 172.441 39.528 173.267 39.038C174.107 38.548 175.045 38.303 176.081 38.303C176.977 38.303 177.81 38.513 178.58 38.933C179.35 39.339 179.938 39.878 180.344 40.55V34.46H182.276V50H180.344V47.837C179.966 48.523 179.406 49.09 178.664 49.538C177.922 49.972 177.054 50.189 176.06 50.189C175.038 50.189 174.107 49.937 173.267 49.433C172.441 48.929 171.79 48.222 171.314 47.312C170.838 46.402 170.6 45.366 170.6 44.204ZM180.344 44.225C180.344 43.357 180.169 42.601 179.819 41.957C179.469 41.313 178.993 40.823 178.391 40.487C177.803 40.137 177.152 39.962 176.438 39.962C175.724 39.962 175.073 40.13 174.485 40.466C173.897 40.802 173.428 41.292 173.078 41.936C172.728 42.58 172.553 43.336 172.553 44.204C172.553 45.086 172.728 45.856 173.078 46.514C173.428 47.158 173.897 47.655 174.485 48.005C175.073 48.341 175.724 48.509 176.438 48.509C177.152 48.509 177.803 48.341 178.391 48.005C178.993 47.655 179.469 47.158 179.819 46.514C180.169 45.856 180.344 45.093 180.344 44.225ZM186.934 48.425H192.583V50H184.75V48.425L190.336 40.046H184.792V38.492H192.541V40.046L186.934 48.425ZM204.735 50.189C203.853 50.189 203.062 50.042 202.362 49.748C201.662 49.44 201.109 49.02 200.703 48.488C200.297 47.942 200.073 47.319 200.031 46.619H202.005C202.061 47.193 202.327 47.662 202.803 48.026C203.293 48.39 203.93 48.572 204.714 48.572C205.442 48.572 206.016 48.411 206.436 48.089C206.856 47.767 207.066 47.361 207.066 46.871C207.066 46.367 206.842 45.996 206.394 45.758C205.946 45.506 205.253 45.261 204.315 45.023C203.461 44.799 202.761 44.575 202.215 44.351C201.683 44.113 201.221 43.77 200.829 43.322C200.451 42.86 200.262 42.258 200.262 41.516C200.262 40.928 200.437 40.389 200.787 39.899C201.137 39.409 201.634 39.024 202.278 38.744C202.922 38.45 203.657 38.303 204.483 38.303C205.757 38.303 206.786 38.625 207.57 39.269C208.354 39.913 208.774 40.795 208.83 41.915H206.919C206.877 41.313 206.632 40.83 206.184 40.466C205.75 40.102 205.162 39.92 204.42 39.92C203.734 39.92 203.188 40.067 202.782 40.361C202.376 40.655 202.173 41.04 202.173 41.516C202.173 41.894 202.292 42.209 202.53 42.461C202.782 42.699 203.09 42.895 203.454 43.049C203.832 43.189 204.35 43.35 205.008 43.532C205.834 43.756 206.506 43.98 207.024 44.204C207.542 44.414 207.983 44.736 208.347 45.17C208.725 45.604 208.921 46.171 208.935 46.871C208.935 47.501 208.76 48.068 208.41 48.572C208.06 49.076 207.563 49.475 206.919 49.769C206.289 50.049 205.561 50.189 204.735 50.189ZM212.62 36.623C212.256 36.623 211.948 36.497 211.696 36.245C211.444 35.993 211.318 35.685 211.318 35.321C211.318 34.957 211.444 34.649 211.696 34.397C211.948 34.145 212.256 34.019 212.62 34.019C212.97 34.019 213.264 34.145 213.502 34.397C213.754 34.649 213.88 34.957 213.88 35.321C213.88 35.685 213.754 35.993 213.502 36.245C213.264 36.497 212.97 36.623 212.62 36.623ZM213.544 38.492V50H211.633V38.492H213.544ZM227.301 43.805C227.301 44.169 227.28 44.554 227.238 44.96H218.04C218.11 46.094 218.495 46.983 219.195 47.627C219.909 48.257 220.77 48.572 221.778 48.572C222.604 48.572 223.29 48.383 223.836 48.005C224.396 47.613 224.788 47.095 225.012 46.451H227.07C226.832 47.305 226.398 48.047 225.768 48.677C225.152 49.293 224.375 49.727 223.437 49.979L222.849 50.273C222.009 50.679 221.589 51.169 221.589 51.743C221.589 52.065 221.701 52.31 221.925 52.478C222.149 52.66 222.45 52.751 222.828 52.751C223.22 52.751 223.675 52.66 224.193 52.478V53.738C223.633 53.934 223.094 54.032 222.576 54.032C221.862 54.032 221.253 53.857 220.749 53.507C220.259 53.171 220.014 52.646 220.014 51.932C220.014 51.246 220.315 50.644 220.917 50.126C219.965 50 219.125 49.685 218.397 49.181C217.669 48.663 217.102 47.984 216.696 47.144C216.29 46.29 216.087 45.317 216.087 44.225C216.087 43.035 216.325 41.992 216.801 41.096C217.277 40.2 217.942 39.514 218.796 39.038C219.664 38.548 220.658 38.303 221.778 38.303C222.87 38.303 223.836 38.541 224.676 39.017C225.516 39.493 226.16 40.151 226.608 40.991C227.07 41.817 227.301 42.755 227.301 43.805ZM225.327 43.406C225.327 42.678 225.166 42.055 224.844 41.537C224.522 41.005 224.081 40.606 223.521 40.34C222.975 40.06 222.366 39.92 221.694 39.92C220.728 39.92 219.902 40.228 219.216 40.844C218.544 41.46 218.159 42.314 218.061 43.406H225.327ZM250.752 38.492L247.161 50H245.187L242.415 40.865L239.643 50H237.669L234.057 38.492H236.01L238.656 48.152L241.512 38.492H243.465L246.258 48.173L248.862 38.492H250.752ZM253.635 36.623C253.271 36.623 252.963 36.497 252.711 36.245C252.459 35.993 252.333 35.685 252.333 35.321C252.333 34.957 252.459 34.649 252.711 34.397C252.963 34.145 253.271 34.019 253.635 34.019C253.985 34.019 254.279 34.145 254.517 34.397C254.769 34.649 254.895 34.957 254.895 35.321C254.895 35.685 254.769 35.993 254.517 36.245C254.279 36.497 253.985 36.623 253.635 36.623ZM254.559 38.492V50H252.648V38.492H254.559ZM268.316 43.805C268.316 44.169 268.295 44.554 268.253 44.96H259.055C259.125 46.094 259.51 46.983 260.21 47.627C260.924 48.257 261.785 48.572 262.793 48.572C263.619 48.572 264.305 48.383 264.851 48.005C265.411 47.613 265.803 47.095 266.027 46.451H268.085C267.847 47.305 267.413 48.047 266.783 48.677C266.167 49.293 265.39 49.727 264.452 49.979L263.864 50.273C263.024 50.679 262.604 51.169 262.604 51.743C262.604 52.065 262.716 52.31 262.94 52.478C263.164 52.66 263.465 52.751 263.843 52.751C264.235 52.751 264.69 52.66 265.208 52.478V53.738C264.648 53.934 264.109 54.032 263.591 54.032C262.877 54.032 262.268 53.857 261.764 53.507C261.274 53.171 261.029 52.646 261.029 51.932C261.029 51.246 261.33 50.644 261.932 50.126C260.98 50 260.14 49.685 259.412 49.181C258.684 48.663 258.117 47.984 257.711 47.144C257.305 46.29 257.102 45.317 257.102 44.225C257.102 43.035 257.34 41.992 257.816 41.096C258.292 40.2 258.957 39.514 259.811 39.038C260.679 38.548 261.673 38.303 262.793 38.303C263.885 38.303 264.851 38.541 265.691 39.017C266.531 39.493 267.175 40.151 267.623 40.991C268.085 41.817 268.316 42.755 268.316 43.805ZM266.342 43.406C266.342 42.678 266.181 42.055 265.859 41.537C265.537 41.005 265.096 40.606 264.536 40.34C263.99 40.06 263.381 39.92 262.709 39.92C261.743 39.92 260.917 40.228 260.231 40.844C259.559 41.46 259.174 42.314 259.076 43.406H266.342ZM270.125 44.225C270.125 43.035 270.363 41.999 270.839 41.117C271.315 40.221 271.973 39.528 272.813 39.038C273.667 38.548 274.64 38.303 275.732 38.303C277.146 38.303 278.308 38.646 279.218 39.332C280.142 40.018 280.751 40.97 281.045 42.188H278.987C278.791 41.488 278.406 40.935 277.832 40.529C277.272 40.123 276.572 39.92 275.732 39.92C274.64 39.92 273.758 40.298 273.086 41.054C272.414 41.796 272.078 42.853 272.078 44.225C272.078 45.611 272.414 46.682 273.086 47.438C273.758 48.194 274.64 48.572 275.732 48.572C276.572 48.572 277.272 48.376 277.832 47.984C278.392 47.592 278.777 47.032 278.987 46.304H281.045C280.737 47.48 280.121 48.425 279.197 49.139C278.273 49.839 277.118 50.189 275.732 50.189C274.64 50.189 273.667 49.944 272.813 49.454C271.973 48.964 271.315 48.271 270.839 47.375C270.363 46.479 270.125 45.429 270.125 44.225ZM294.095 43.805C294.095 44.169 294.074 44.554 294.032 44.96H284.834C284.904 46.094 285.289 46.983 285.989 47.627C286.703 48.257 287.564 48.572 288.572 48.572C289.398 48.572 290.084 48.383 290.63 48.005C291.19 47.613 291.582 47.095 291.806 46.451H293.864C293.556 47.557 292.94 48.46 292.016 49.16C291.092 49.846 289.944 50.189 288.572 50.189C287.48 50.189 286.5 49.944 285.632 49.454C284.778 48.964 284.106 48.271 283.616 47.375C283.126 46.465 282.881 45.415 282.881 44.225C282.881 43.035 283.119 41.992 283.595 41.096C284.071 40.2 284.736 39.514 285.59 39.038C286.458 38.548 287.452 38.303 288.572 38.303C289.664 38.303 290.63 38.541 291.47 39.017C292.31 39.493 292.954 40.151 293.402 40.991C293.864 41.817 294.095 42.755 294.095 43.805ZM292.121 43.406C292.121 42.678 291.96 42.055 291.638 41.537C291.316 41.005 290.875 40.606 290.315 40.34C289.769 40.06 289.16 39.92 288.488 39.92C287.522 39.92 286.696 40.228 286.01 40.844C285.338 41.46 284.953 42.314 284.855 43.406H292.121ZM297.646 36.623C297.282 36.623 296.974 36.497 296.722 36.245C296.484 35.993 296.365 35.685 296.365 35.321C296.365 34.957 296.484 34.649 296.722 34.397C296.974 34.145 297.282 34.019 297.646 34.019C298.01 34.019 298.311 34.145 298.549 34.397C298.801 34.649 298.927 34.957 298.927 35.321C298.927 35.685 298.801 35.993 298.549 36.245C298.311 36.497 298.01 36.623 297.646 36.623ZM298.591 52.499C298.591 53.521 298.332 54.27 297.814 54.746C297.296 55.222 296.54 55.46 295.546 55.46H294.433V53.843H295.231C295.763 53.843 296.134 53.738 296.344 53.528C296.568 53.318 296.68 52.961 296.68 52.457V38.492H298.591V52.499ZM304.304 35.363L304.073 45.863H302.477L302.246 35.363H304.304ZM303.359 50.126C302.995 50.126 302.687 50 302.435 49.748C302.183 49.496 302.057 49.188 302.057 48.824C302.057 48.46 302.183 48.152 302.435 47.9C302.687 47.648 302.995 47.522 303.359 47.522C303.709 47.522 304.003 47.648 304.241 47.9C304.493 48.152 304.619 48.46 304.619 48.824C304.619 49.188 304.493 49.496 304.241 49.748C304.003 50 303.709 50.126 303.359 50.126Z" fill="#F1F2F6"/>
</svg>
