<svg width="40" height="40" viewBox="0 0 40 40" fill="none" xmlns="http://www.w3.org/2000/svg">
<path d="M39.5 20.1208C39.5 29.7148 32.6613 37.6964 23.625 39.4058V26.4388H27.7848H28.2145L28.2791 26.014L29.1648 20.1961L29.2524 19.6208H28.6705H23.6241V16.3482C23.6241 15.6236 23.8016 14.9703 24.202 14.5047C24.5903 14.053 25.252 13.7043 26.3839 13.7043H28.9071H29.4071V13.2043V8.25223V7.83083L28.9918 7.75945L28.9071 8.25223C28.9918 7.75945 28.9918 7.75944 28.9917 7.75944L28.9916 7.75941L28.9911 7.75933L28.9895 7.75906L28.9839 7.75811L28.963 7.7546L28.8839 7.74167C28.8152 7.73061 28.7152 7.71493 28.5886 7.69616C28.3355 7.65864 27.9757 7.60874 27.5467 7.55886C26.6909 7.45935 25.5505 7.35879 24.4295 7.35879C22.0435 7.35879 20.0159 8.08871 18.5845 9.53037C17.1529 10.9722 16.375 13.068 16.375 15.6879V19.6208H11.7955H11.2955V20.1208V25.9388V26.4388H11.7955H16.375V39.404C7.33867 37.6937 0.5 29.7121 0.5 20.1208C0.5 9.28275 9.23433 0.5 20 0.5C30.7657 0.5 39.5 9.28275 39.5 20.1208Z" fill="white" stroke="black"/>
</svg>
