<svg width="40" height="40" viewBox="0 0 40 40" fill="none" xmlns="http://www.w3.org/2000/svg">
<path d="M39.7643 16.9179L39.5586 16.0616H20.5879V23.9384H31.9226C30.7458 29.4205 25.2851 32.3062 20.8246 32.3062C17.5791 32.3062 14.1579 30.967 11.8935 28.8143C10.6988 27.6604 9.74785 26.2866 9.09505 24.7717C8.44226 23.2568 8.10044 21.6304 8.08919 19.9857C8.08919 16.6679 9.6091 13.3491 11.8207 11.1661C14.0323 8.98304 17.3725 7.76161 20.6935 7.76161C24.4969 7.76161 27.2228 9.74286 28.2421 10.6464L33.9477 5.07857C32.2739 3.63571 27.676 0 20.5097 0C14.9807 0 9.67918 2.07768 5.80387 5.86696C1.97952 9.59821 0 14.9938 0 20C0 25.0063 1.87304 30.1321 5.57907 33.8929C9.53902 37.9036 15.1472 40 20.922 40C26.1761 40 31.1563 37.9804 34.7058 34.3161C38.1952 30.7089 40 25.7179 40 20.4857C40 18.283 39.7743 16.975 39.7643 16.9179Z" fill="black"/>
</svg>
