<svg width="504" height="54" viewBox="0 0 504 54" fill="none" xmlns="http://www.w3.org/2000/svg">
<path d="M15.4895 7.364V20H12.4115V12.422L9.58548 20H7.10148L4.25748 12.404V20H1.17948V7.364H4.81548L8.36148 16.112L11.8715 7.364H15.4895ZM27.1709 14.816C27.1709 15.104 27.1529 15.404 27.1169 15.716H20.1509C20.1989 16.34 20.3969 16.82 20.7449 17.156C21.1049 17.48 21.5429 17.642 22.0589 17.642C22.8269 17.642 23.3609 17.318 23.6609 16.67H26.9369C26.7689 17.33 26.4629 17.924 26.0189 18.452C25.5869 18.98 25.0409 19.394 24.3809 19.694C23.7209 19.994 22.9829 20.144 22.1669 20.144C21.1829 20.144 20.3069 19.934 19.5389 19.514C18.7709 19.094 18.1709 18.494 17.7389 17.714C17.3069 16.934 17.0909 16.022 17.0909 14.978C17.0909 13.934 17.3009 13.022 17.7209 12.242C18.1529 11.462 18.7529 10.862 19.5209 10.442C20.2889 10.022 21.1709 9.812 22.1669 9.812C23.1389 9.812 24.0029 10.016 24.7589 10.424C25.5149 10.832 26.1029 11.414 26.5229 12.17C26.9549 12.926 27.1709 13.808 27.1709 14.816ZM24.0209 14.006C24.0209 13.478 23.8409 13.058 23.4809 12.746C23.1209 12.434 22.6709 12.278 22.1309 12.278C21.6149 12.278 21.1769 12.428 20.8169 12.728C20.4689 13.028 20.2529 13.454 20.1689 14.006H24.0209ZM34.9147 9.848C36.0907 9.848 37.0267 10.232 37.7227 11C38.4307 11.756 38.7847 12.8 38.7847 14.132V20H35.7247V14.546C35.7247 13.874 35.5507 13.352 35.2027 12.98C34.8547 12.608 34.3867 12.422 33.7987 12.422C33.2107 12.422 32.7427 12.608 32.3947 12.98C32.0467 13.352 31.8727 13.874 31.8727 14.546V20H28.7947V9.956H31.8727V11.288C32.1847 10.844 32.6047 10.496 33.1327 10.244C33.6607 9.98 34.2547 9.848 34.9147 9.848ZM50.8416 9.956V20H47.7636V18.632C47.4516 19.076 47.0256 19.436 46.4856 19.712C45.9576 19.976 45.3696 20.108 44.7216 20.108C43.9536 20.108 43.2756 19.94 42.6876 19.604C42.0996 19.256 41.6436 18.758 41.3196 18.11C40.9956 17.462 40.8336 16.7 40.8336 15.824V9.956H43.8936V15.41C43.8936 16.082 44.0676 16.604 44.4156 16.976C44.7636 17.348 45.2316 17.534 45.8196 17.534C46.4196 17.534 46.8936 17.348 47.2416 16.976C47.5896 16.604 47.7636 16.082 47.7636 15.41V9.956H50.8416Z" fill="black"/>
<path d="M109.202 7.364V17.174C109.202 18.05 108.932 18.764 108.392 19.316C107.852 19.856 107.12 20.126 106.196 20.126C105.224 20.126 104.456 19.832 103.892 19.244C103.34 18.644 103.064 17.822 103.064 16.778H103.874C103.874 17.546 104.06 18.176 104.432 18.668C104.804 19.16 105.392 19.406 106.196 19.406C106.964 19.406 107.516 19.19 107.852 18.758C108.2 18.314 108.374 17.786 108.374 17.174V7.364H109.202ZM111.756 15.104C111.756 14.096 111.954 13.214 112.35 12.458C112.758 11.702 113.316 11.12 114.024 10.712C114.744 10.304 115.56 10.1 116.472 10.1C117.504 10.1 118.38 10.352 119.1 10.856C119.82 11.36 120.324 12.002 120.612 12.782V10.226H121.422V20H120.612V17.426C120.324 18.218 119.814 18.872 119.082 19.388C118.362 19.892 117.492 20.144 116.472 20.144C115.56 20.144 114.744 19.94 114.024 19.532C113.316 19.112 112.758 18.524 112.35 17.768C111.954 17 111.756 16.112 111.756 15.104ZM120.612 15.104C120.612 14.252 120.432 13.502 120.072 12.854C119.724 12.194 119.244 11.69 118.632 11.342C118.02 10.982 117.336 10.802 116.58 10.802C115.788 10.802 115.092 10.976 114.492 11.324C113.892 11.66 113.424 12.152 113.088 12.8C112.752 13.448 112.584 14.216 112.584 15.104C112.584 15.992 112.752 16.76 113.088 17.408C113.424 18.056 113.892 18.554 114.492 18.902C115.104 19.25 115.8 19.424 116.58 19.424C117.336 19.424 118.02 19.25 118.632 18.902C119.256 18.542 119.742 18.038 120.09 17.39C120.438 16.73 120.612 15.968 120.612 15.104ZM129.448 20L125.182 15.518V20H124.372V6.68H125.182V14.654L129.376 10.226H130.51L125.776 15.086L130.564 20H129.448ZM136.805 15.104C136.805 14.096 137.003 13.214 137.399 12.458C137.807 11.702 138.365 11.12 139.073 10.712C139.793 10.304 140.609 10.1 141.521 10.1C142.517 10.1 143.381 10.352 144.113 10.856C144.845 11.348 145.361 11.99 145.661 12.782V6.68H146.471V20H145.661V17.408C145.373 18.212 144.869 18.872 144.149 19.388C143.429 19.892 142.553 20.144 141.521 20.144C140.609 20.144 139.793 19.94 139.073 19.532C138.365 19.112 137.807 18.524 137.399 17.768C137.003 17 136.805 16.112 136.805 15.104ZM145.661 15.104C145.661 14.252 145.481 13.502 145.121 12.854C144.773 12.194 144.293 11.69 143.681 11.342C143.069 10.982 142.385 10.802 141.629 10.802C140.837 10.802 140.141 10.976 139.541 11.324C138.941 11.66 138.473 12.152 138.137 12.8C137.801 13.448 137.633 14.216 137.633 15.104C137.633 15.992 137.801 16.76 138.137 17.408C138.473 18.056 138.941 18.554 139.541 18.902C140.153 19.25 140.849 19.424 141.629 19.424C142.385 19.424 143.069 19.25 143.681 18.902C144.305 18.542 144.791 18.038 145.139 17.39C145.487 16.73 145.661 15.968 145.661 15.104ZM149.456 19.316H154.964V20H148.556V19.316L153.92 10.91H148.682V10.226H154.838V10.91L149.456 19.316ZM157.463 8.048C157.271 8.048 157.109 7.988 156.977 7.868C156.845 7.736 156.779 7.562 156.779 7.346C156.779 7.142 156.845 6.974 156.977 6.842C157.109 6.71 157.271 6.644 157.463 6.644C157.655 6.644 157.817 6.71 157.949 6.842C158.081 6.974 158.147 7.142 158.147 7.346C158.147 7.562 158.081 7.736 157.949 7.868C157.817 7.988 157.655 8.048 157.463 8.048ZM157.859 10.226V20H157.049V10.226H157.859ZM160.325 15.104C160.325 14.096 160.523 13.214 160.919 12.458C161.327 11.702 161.885 11.12 162.593 10.712C163.313 10.304 164.129 10.1 165.041 10.1C166.073 10.1 166.949 10.352 167.669 10.856C168.389 11.36 168.893 12.002 169.181 12.782V10.226H169.991V20H169.181V17.426C168.893 18.218 168.383 18.872 167.651 19.388C166.931 19.892 166.061 20.144 165.041 20.144C164.129 20.144 163.313 19.94 162.593 19.532C161.885 19.112 161.327 18.524 160.919 17.768C160.523 17 160.325 16.112 160.325 15.104ZM169.181 15.104C169.181 14.252 169.001 13.502 168.641 12.854C168.293 12.194 167.813 11.69 167.201 11.342C166.589 10.982 165.905 10.802 165.149 10.802C164.357 10.802 163.661 10.976 163.061 11.324C162.461 11.66 161.993 12.152 161.657 12.8C161.321 13.448 161.153 14.216 161.153 15.104C161.153 15.992 161.321 16.76 161.657 17.408C161.993 18.056 162.461 18.554 163.061 18.902C163.673 19.25 164.369 19.424 165.149 19.424C165.905 19.424 166.589 19.25 167.201 18.902C167.825 18.542 168.311 18.038 168.659 17.39C169.007 16.73 169.181 15.968 169.181 15.104ZM175.334 11.27L173.894 11.99V20H173.084V12.404L171.644 13.124V12.44L173.084 11.72V6.68H173.894V11.324L175.334 10.604V11.27ZM176.461 15.104C176.461 14.096 176.659 13.214 177.055 12.458C177.463 11.702 178.021 11.12 178.729 10.712C179.449 10.304 180.265 10.1 181.177 10.1C182.209 10.1 183.085 10.352 183.805 10.856C184.525 11.36 185.029 12.002 185.317 12.782V10.226H186.127V20H185.317V17.426C185.029 18.218 184.519 18.872 183.787 19.388C183.067 19.892 182.197 20.144 181.177 20.144C180.265 20.144 179.449 19.94 178.729 19.532C178.021 19.112 177.463 18.524 177.055 17.768C176.659 17 176.461 16.112 176.461 15.104ZM185.317 15.104C185.317 14.252 185.137 13.502 184.777 12.854C184.429 12.194 183.949 11.69 183.337 11.342C182.725 10.982 182.041 10.802 181.285 10.802C180.493 10.802 179.797 10.976 179.197 11.324C178.597 11.66 178.129 12.152 177.793 12.8C177.457 13.448 177.289 14.216 177.289 15.104C177.289 15.992 177.457 16.76 177.793 17.408C178.129 18.056 178.597 18.554 179.197 18.902C179.809 19.25 180.505 19.424 181.285 19.424C182.041 19.424 182.725 19.25 183.337 18.902C183.961 18.542 184.447 18.038 184.795 17.39C185.143 16.73 185.317 15.968 185.317 15.104ZM191.939 7.238C192.683 7.238 193.343 7.388 193.919 7.688C194.507 7.988 194.963 8.408 195.287 8.948C195.623 9.488 195.791 10.118 195.791 10.838C195.791 13.37 194.261 14.648 191.201 14.672L191.165 16.976H190.481L190.427 14.06H190.787C192.071 14.06 193.097 13.838 193.865 13.394C194.633 12.95 195.017 12.098 195.017 10.838C195.017 9.95 194.735 9.242 194.171 8.714C193.607 8.186 192.869 7.922 191.957 7.922C191.033 7.922 190.295 8.174 189.743 8.678C189.203 9.182 188.933 9.86 188.933 10.712H188.159C188.159 10.004 188.321 9.386 188.645 8.858C188.969 8.33 189.419 7.928 189.995 7.652C190.571 7.376 191.219 7.238 191.939 7.238ZM190.823 20.054C190.619 20.054 190.451 19.988 190.319 19.856C190.187 19.724 190.121 19.556 190.121 19.352C190.121 19.148 190.187 18.98 190.319 18.848C190.451 18.716 190.619 18.65 190.823 18.65C191.015 18.65 191.177 18.716 191.309 18.848C191.441 18.98 191.507 19.148 191.507 19.352C191.507 19.556 191.441 19.724 191.309 19.856C191.177 19.988 191.015 20.054 190.823 20.054Z" fill="black"/>
<path d="M255.146 20L249.332 14.042V20H248.522V7.364H249.332V13.376L255.146 7.364H256.19L250.034 13.7L256.208 20H255.146ZM262.386 20.144C261.474 20.144 260.652 19.94 259.92 19.532C259.188 19.124 258.612 18.542 258.192 17.786C257.784 17.018 257.58 16.124 257.58 15.104C257.58 14.096 257.79 13.214 258.21 12.458C258.63 11.69 259.206 11.108 259.938 10.712C260.682 10.304 261.51 10.1 262.422 10.1C263.334 10.1 264.156 10.304 264.888 10.712C265.62 11.108 266.19 11.684 266.598 12.44C267.018 13.196 267.228 14.084 267.228 15.104C267.228 16.124 267.018 17.018 266.598 17.786C266.178 18.542 265.596 19.124 264.852 19.532C264.12 19.94 263.298 20.144 262.386 20.144ZM262.386 19.424C263.094 19.424 263.754 19.268 264.366 18.956C264.99 18.632 265.488 18.146 265.86 17.498C266.232 16.85 266.418 16.052 266.418 15.104C266.418 14.168 266.232 13.376 265.86 12.728C265.488 12.08 264.996 11.6 264.384 11.288C263.772 10.964 263.112 10.802 262.404 10.802C261.696 10.802 261.036 10.964 260.424 11.288C259.824 11.6 259.338 12.08 258.966 12.728C258.594 13.376 258.408 14.168 258.408 15.104C258.408 16.052 258.588 16.85 258.948 17.498C259.32 18.146 259.806 18.632 260.406 18.956C261.018 19.268 261.678 19.424 262.386 19.424ZM281.242 10.028C282.358 10.028 283.27 10.388 283.978 11.108C284.686 11.816 285.04 12.872 285.04 14.276V20H284.248V14.33C284.248 13.166 283.966 12.278 283.402 11.666C282.85 11.042 282.088 10.73 281.116 10.73C280.108 10.73 279.298 11.078 278.686 11.774C278.074 12.47 277.768 13.478 277.768 14.798V20H276.976V14.33C276.976 13.166 276.694 12.278 276.13 11.666C275.578 11.042 274.816 10.73 273.844 10.73C272.836 10.73 272.026 11.078 271.414 11.774C270.802 12.47 270.496 13.478 270.496 14.798V20H269.686V10.226H270.496V12.35C270.772 11.582 271.216 11.006 271.828 10.622C272.452 10.226 273.166 10.028 273.97 10.028C274.858 10.028 275.62 10.262 276.256 10.73C276.904 11.186 277.348 11.864 277.588 12.764C277.816 11.864 278.26 11.186 278.92 10.73C279.58 10.262 280.354 10.028 281.242 10.028ZM288.724 12.8C289 12.008 289.498 11.36 290.218 10.856C290.95 10.352 291.832 10.1 292.864 10.1C293.776 10.1 294.586 10.304 295.294 10.712C296.014 11.12 296.572 11.702 296.968 12.458C297.376 13.214 297.58 14.096 297.58 15.104C297.58 16.112 297.376 17 296.968 17.768C296.572 18.524 296.014 19.112 295.294 19.532C294.586 19.94 293.776 20.144 292.864 20.144C291.844 20.144 290.968 19.892 290.236 19.388C289.516 18.872 289.012 18.224 288.724 17.444V24.608H287.914V10.226H288.724V12.8ZM296.752 15.104C296.752 14.216 296.584 13.448 296.248 12.8C295.912 12.152 295.438 11.66 294.826 11.324C294.226 10.976 293.53 10.802 292.738 10.802C291.982 10.802 291.298 10.982 290.686 11.342C290.074 11.69 289.594 12.194 289.246 12.854C288.898 13.502 288.724 14.252 288.724 15.104C288.724 15.968 288.898 16.73 289.246 17.39C289.594 18.038 290.074 18.542 290.686 18.902C291.298 19.25 291.982 19.424 292.738 19.424C293.53 19.424 294.226 19.25 294.826 18.902C295.438 18.554 295.912 18.056 296.248 17.408C296.584 16.76 296.752 15.992 296.752 15.104ZM299.522 15.104C299.522 14.096 299.72 13.214 300.116 12.458C300.524 11.702 301.082 11.12 301.79 10.712C302.51 10.304 303.326 10.1 304.238 10.1C305.27 10.1 306.146 10.352 306.866 10.856C307.586 11.36 308.09 12.002 308.378 12.782V10.226H309.188V20H308.378V17.426C308.09 18.218 307.58 18.872 306.848 19.388C306.128 19.892 305.258 20.144 304.238 20.144C303.326 20.144 302.51 19.94 301.79 19.532C301.082 19.112 300.524 18.524 300.116 17.768C299.72 17 299.522 16.112 299.522 15.104ZM308.378 15.104C308.378 14.252 308.198 13.502 307.838 12.854C307.49 12.194 307.01 11.69 306.398 11.342C305.786 10.982 305.102 10.802 304.346 10.802C303.554 10.802 302.858 10.976 302.258 11.324C301.658 11.66 301.19 12.152 300.854 12.8C300.518 13.448 300.35 14.216 300.35 15.104C300.35 15.992 300.518 16.76 300.854 17.408C301.19 18.056 301.658 18.554 302.258 18.902C302.87 19.25 303.566 19.424 304.346 19.424C305.102 19.424 305.786 19.25 306.398 18.902C307.022 18.542 307.508 18.038 307.856 17.39C308.204 16.73 308.378 15.968 308.378 15.104ZM313.343 10.928V17.39C313.343 18.11 313.475 18.608 313.739 18.884C314.003 19.148 314.471 19.28 315.143 19.28H316.241V20H315.017C314.165 20 313.535 19.802 313.127 19.406C312.731 18.998 312.533 18.326 312.533 17.39V10.928H311.057V10.226H312.533V7.742H313.343V10.226H316.241V10.928H313.343ZM326.009 10.226L320.321 24.59H319.493L321.311 20L317.207 10.226H318.089L321.761 19.1L325.181 10.226H326.009ZM328.627 12.8C328.927 12.008 329.437 11.36 330.157 10.856C330.877 10.352 331.747 10.1 332.767 10.1C333.679 10.1 334.489 10.304 335.197 10.712C335.917 11.12 336.475 11.702 336.871 12.458C337.279 13.214 337.483 14.096 337.483 15.104C337.483 16.112 337.279 17 336.871 17.768C336.475 18.524 335.917 19.112 335.197 19.532C334.489 19.94 333.679 20.144 332.767 20.144C331.747 20.144 330.871 19.892 330.139 19.388C329.419 18.884 328.915 18.236 328.627 17.444V20H327.817V6.68H328.627V12.8ZM336.655 15.104C336.655 14.216 336.487 13.448 336.151 12.8C335.815 12.152 335.341 11.66 334.729 11.324C334.129 10.976 333.433 10.802 332.641 10.802C331.885 10.802 331.201 10.982 330.589 11.342C329.977 11.69 329.497 12.194 329.149 12.854C328.801 13.502 328.627 14.252 328.627 15.104C328.627 15.968 328.801 16.73 329.149 17.39C329.497 18.038 329.977 18.542 330.589 18.902C331.201 19.25 331.885 19.424 332.641 19.424C333.433 19.424 334.129 19.25 334.729 18.902C335.341 18.554 335.815 18.056 336.151 17.408C336.487 16.76 336.655 15.992 336.655 15.104ZM340.342 8.048C340.15 8.048 339.988 7.988 339.856 7.868C339.724 7.736 339.658 7.562 339.658 7.346C339.658 7.142 339.724 6.974 339.856 6.842C339.988 6.71 340.15 6.644 340.342 6.644C340.534 6.644 340.696 6.71 340.828 6.842C340.96 6.974 341.026 7.142 341.026 7.346C341.026 7.562 340.96 7.736 340.828 7.868C340.696 7.988 340.534 8.048 340.342 8.048ZM340.738 10.226V20H339.928V10.226H340.738ZM344.517 6.68V20H343.707V6.68H344.517ZM351.897 10.028C353.061 10.028 354.009 10.388 354.741 11.108C355.473 11.816 355.839 12.872 355.839 14.276V20H355.047V14.33C355.047 13.166 354.753 12.278 354.165 11.666C353.577 11.042 352.779 10.73 351.771 10.73C350.715 10.73 349.869 11.066 349.233 11.738C348.609 12.41 348.297 13.406 348.297 14.726V20H347.487V10.226H348.297V12.296C348.573 11.564 349.029 11.006 349.665 10.622C350.313 10.226 351.057 10.028 351.897 10.028ZM363.004 20.144C362.092 20.144 361.27 19.94 360.538 19.532C359.806 19.124 359.23 18.542 358.81 17.786C358.402 17.018 358.198 16.124 358.198 15.104C358.198 14.096 358.408 13.214 358.828 12.458C359.248 11.69 359.824 11.108 360.556 10.712C361.3 10.304 362.128 10.1 363.04 10.1C363.952 10.1 364.774 10.304 365.506 10.712C366.238 11.108 366.808 11.684 367.216 12.44C367.636 13.196 367.846 14.084 367.846 15.104C367.846 16.124 367.636 17.018 367.216 17.786C366.796 18.542 366.214 19.124 365.47 19.532C364.738 19.94 363.916 20.144 363.004 20.144ZM363.004 19.424C363.712 19.424 364.372 19.268 364.984 18.956C365.608 18.632 366.106 18.146 366.478 17.498C366.85 16.85 367.036 16.052 367.036 15.104C367.036 14.168 366.85 13.376 366.478 12.728C366.106 12.08 365.614 11.6 365.002 11.288C364.39 10.964 363.73 10.802 363.022 10.802C362.314 10.802 361.654 10.964 361.042 11.288C360.442 11.6 359.956 12.08 359.584 12.728C359.212 13.376 359.026 14.168 359.026 15.104C359.026 16.052 359.206 16.85 359.566 17.498C359.938 18.146 360.424 18.632 361.024 18.956C361.636 19.268 362.296 19.424 363.004 19.424ZM373.561 20.144C372.469 20.144 371.575 19.904 370.879 19.424C370.195 18.944 369.811 18.26 369.727 17.372H370.555C370.615 18.008 370.903 18.512 371.419 18.884C371.947 19.256 372.661 19.442 373.561 19.442C374.305 19.442 374.893 19.256 375.325 18.884C375.769 18.5 375.991 18.032 375.991 17.48C375.991 17.096 375.871 16.784 375.631 16.544C375.403 16.292 375.115 16.1 374.767 15.968C374.419 15.836 373.945 15.692 373.345 15.536C372.625 15.344 372.043 15.158 371.599 14.978C371.155 14.786 370.777 14.504 370.465 14.132C370.153 13.76 369.997 13.262 369.997 12.638C369.997 12.182 370.135 11.762 370.411 11.378C370.687 10.982 371.071 10.67 371.563 10.442C372.055 10.214 372.613 10.1 373.237 10.1C374.257 10.1 375.079 10.358 375.703 10.874C376.339 11.378 376.681 12.08 376.729 12.98H375.919C375.883 12.332 375.631 11.804 375.163 11.396C374.695 10.988 374.047 10.784 373.219 10.784C372.523 10.784 371.947 10.964 371.491 11.324C371.035 11.684 370.807 12.122 370.807 12.638C370.807 13.094 370.933 13.466 371.185 13.754C371.449 14.03 371.767 14.246 372.139 14.402C372.523 14.546 373.027 14.702 373.651 14.87C374.335 15.05 374.881 15.23 375.289 15.41C375.709 15.578 376.063 15.83 376.351 16.166C376.639 16.49 376.783 16.928 376.783 17.48C376.783 17.984 376.645 18.44 376.369 18.848C376.093 19.256 375.709 19.574 375.217 19.802C374.725 20.03 374.173 20.144 373.561 20.144ZM374.875 7.166L371.347 9.398V8.732L374.875 6.374V7.166ZM378.746 15.104C378.746 14.084 378.944 13.196 379.34 12.44C379.748 11.684 380.306 11.108 381.014 10.712C381.734 10.304 382.556 10.1 383.48 10.1C384.704 10.1 385.706 10.406 386.486 11.018C387.278 11.63 387.77 12.452 387.962 13.484H387.116C386.96 12.644 386.552 11.984 385.892 11.504C385.244 11.024 384.44 10.784 383.48 10.784C382.76 10.784 382.106 10.946 381.518 11.27C380.93 11.582 380.456 12.068 380.096 12.728C379.748 13.376 379.574 14.168 379.574 15.104C379.574 16.052 379.748 16.85 380.096 17.498C380.456 18.146 380.93 18.632 381.518 18.956C382.106 19.28 382.76 19.442 383.48 19.442C384.44 19.442 385.244 19.202 385.892 18.722C386.552 18.242 386.96 17.582 387.116 16.742H387.962C387.77 17.762 387.278 18.584 386.486 19.208C385.694 19.832 384.692 20.144 383.48 20.144C382.556 20.144 381.734 19.94 381.014 19.532C380.306 19.124 379.748 18.542 379.34 17.786C378.944 17.018 378.746 16.124 378.746 15.104ZM384.956 7.202L381.428 9.434V8.768L384.956 6.41V7.202Z" fill="black"/>
<path d="M447.186 20L441.372 14.042V20H440.562V7.364H441.372V13.376L447.186 7.364H448.23L442.074 13.7L448.248 20H447.186ZM454.426 20.144C453.514 20.144 452.692 19.94 451.96 19.532C451.228 19.124 450.652 18.542 450.232 17.786C449.824 17.018 449.62 16.124 449.62 15.104C449.62 14.096 449.83 13.214 450.25 12.458C450.67 11.69 451.246 11.108 451.978 10.712C452.722 10.304 453.55 10.1 454.462 10.1C455.374 10.1 456.196 10.304 456.928 10.712C457.66 11.108 458.23 11.684 458.638 12.44C459.058 13.196 459.268 14.084 459.268 15.104C459.268 16.124 459.058 17.018 458.638 17.786C458.218 18.542 457.636 19.124 456.892 19.532C456.16 19.94 455.338 20.144 454.426 20.144ZM454.426 19.424C455.134 19.424 455.794 19.268 456.406 18.956C457.03 18.632 457.528 18.146 457.9 17.498C458.272 16.85 458.458 16.052 458.458 15.104C458.458 14.168 458.272 13.376 457.9 12.728C457.528 12.08 457.036 11.6 456.424 11.288C455.812 10.964 455.152 10.802 454.444 10.802C453.736 10.802 453.076 10.964 452.464 11.288C451.864 11.6 451.378 12.08 451.006 12.728C450.634 13.376 450.448 14.168 450.448 15.104C450.448 16.052 450.628 16.85 450.988 17.498C451.36 18.146 451.846 18.632 452.446 18.956C453.058 19.268 453.718 19.424 454.426 19.424ZM466.136 10.028C467.3 10.028 468.248 10.388 468.98 11.108C469.712 11.816 470.078 12.872 470.078 14.276V20H469.286V14.33C469.286 13.166 468.992 12.278 468.404 11.666C467.816 11.042 467.018 10.73 466.01 10.73C464.954 10.73 464.108 11.066 463.472 11.738C462.848 12.41 462.536 13.406 462.536 14.726V20H461.726V10.226H462.536V12.296C462.812 11.564 463.268 11.006 463.904 10.622C464.552 10.226 465.296 10.028 466.136 10.028ZM474.147 10.928V17.39C474.147 18.11 474.279 18.608 474.543 18.884C474.807 19.148 475.275 19.28 475.947 19.28H477.045V20H475.821C474.969 20 474.339 19.802 473.931 19.406C473.535 18.998 473.337 18.326 473.337 17.39V10.928H471.861V10.226H473.337V7.742H474.147V10.226H477.045V10.928H474.147ZM478.677 15.104C478.677 14.096 478.875 13.214 479.271 12.458C479.679 11.702 480.237 11.12 480.945 10.712C481.665 10.304 482.481 10.1 483.393 10.1C484.425 10.1 485.301 10.352 486.021 10.856C486.741 11.36 487.245 12.002 487.533 12.782V10.226H488.343V20H487.533V17.426C487.245 18.218 486.735 18.872 486.003 19.388C485.283 19.892 484.413 20.144 483.393 20.144C482.481 20.144 481.665 19.94 480.945 19.532C480.237 19.112 479.679 18.524 479.271 17.768C478.875 17 478.677 16.112 478.677 15.104ZM487.533 15.104C487.533 14.252 487.353 13.502 486.993 12.854C486.645 12.194 486.165 11.69 485.553 11.342C484.941 10.982 484.257 10.802 483.501 10.802C482.709 10.802 482.013 10.976 481.413 11.324C480.813 11.66 480.345 12.152 480.009 12.8C479.673 13.448 479.505 14.216 479.505 15.104C479.505 15.992 479.673 16.76 480.009 17.408C480.345 18.056 480.813 18.554 481.413 18.902C482.025 19.25 482.721 19.424 483.501 19.424C484.257 19.424 484.941 19.25 485.553 18.902C486.177 18.542 486.663 18.038 487.011 17.39C487.359 16.73 487.533 15.968 487.533 15.104ZM496.368 20L492.102 15.518V20H491.292V6.68H492.102V14.654L496.296 10.226H497.43L492.696 15.086L497.484 20H496.368ZM500.356 10.928V17.39C500.356 18.11 500.488 18.608 500.752 18.884C501.016 19.148 501.484 19.28 502.156 19.28H503.254V20H502.03C501.178 20 500.548 19.802 500.14 19.406C499.744 18.998 499.546 18.326 499.546 17.39V10.928H498.07V10.226H499.546V7.742H500.356V10.226H503.254V10.928H500.356Z" fill="black"/>
<line y1="30.5" x2="504" y2="30.5" stroke="#EA212A"/>
</svg>
