<svg width="40" height="40" viewBox="0 0 40 40" fill="none" xmlns="http://www.w3.org/2000/svg">
<path d="M30.8341 11.167H30.833C30.4375 11.167 30.0508 11.0497 29.7219 10.8299C29.393 10.6102 29.1367 10.2978 28.9853 9.93236C28.8339 9.56691 28.7943 9.16478 28.8715 8.77681C28.9486 8.38885 29.1391 8.03248 29.4188 7.75278C29.6985 7.47307 30.0549 7.28259 30.4429 7.20542C30.8308 7.12825 31.233 7.16786 31.5984 7.31923C31.9639 7.47061 32.2762 7.72695 32.496 8.05585C32.7157 8.38475 32.833 8.77143 32.833 9.16699L32.833 9.16807C32.8336 9.43073 32.7823 9.69092 32.682 9.93369C32.5818 10.1765 32.4346 10.3971 32.2488 10.5828L32.5752 10.9091L32.2488 10.5828C32.0631 10.7685 31.8425 10.9157 31.5997 11.016C31.357 11.1162 31.0968 11.1676 30.8341 11.167ZM30.833 11.667C30.3386 11.667 29.8552 11.5204 29.4441 11.2457C29.033 10.971 28.7126 10.5805 28.5233 10.1237C28.3341 9.66689 28.2846 9.16422 28.3811 8.67927C28.4775 8.19431 28.7156 7.74886 29.0653 7.39923C29.4149 7.04959 29.8604 6.81149 30.3453 6.71503C30.8303 6.61857 31.3329 6.66808 31.7897 6.85729C32.2466 7.04651 32.637 7.36694 32.9117 7.77807C33.1864 8.18919 33.333 8.67254 33.333 9.16699L30.833 11.667ZM20 12.8331L19.9995 12.8331C18.0994 12.8351 16.2778 13.5908 14.9343 14.9343C13.5908 16.2778 12.8351 18.0995 12.833 19.9995V20C12.833 21.4175 13.2534 22.8032 14.0409 23.9818C14.8284 25.1604 15.9477 26.079 17.2573 26.6214C18.5669 27.1639 20.008 27.3058 21.3982 27.0293C22.7885 26.7527 24.0655 26.0702 25.0678 25.0678C26.0701 24.0655 26.7527 22.7885 27.0293 21.3982C27.3058 20.008 27.1639 18.5669 26.6214 17.2574C26.079 15.9478 25.1604 14.8284 23.9818 14.0409C22.8032 13.2534 21.4175 12.8331 20 12.8331ZM14.7221 12.1011C16.2844 11.0572 18.1211 10.5 20 10.5C22.5196 10.5 24.9359 11.5009 26.7175 13.2825C28.4991 15.0641 29.5 17.4805 29.5 20C29.5 21.879 28.9428 23.7157 27.899 25.2779C26.8551 26.8402 25.3714 28.0579 23.6355 28.7769C21.8996 29.4959 19.9895 29.684 18.1466 29.3175C16.3038 28.9509 14.6111 28.0461 13.2825 26.7175C11.9539 25.3889 11.0491 23.6962 10.6825 21.8534C10.316 20.0106 10.5041 18.1004 11.2231 16.3645C11.9422 14.6286 13.1598 13.1449 14.7221 12.1011Z" fill="#F1F2F6" stroke="black"/>
<path d="M28.3345 2.83304H28.333L11.667 2.83303L11.6655 2.83304C9.32511 2.84003 7.08261 3.77283 5.42772 5.42772C3.77283 7.08261 2.84003 9.32511 2.83304 11.6655V11.667L2.83303 28.333L2.83304 28.3345C2.84003 30.6749 3.77283 32.9174 5.42772 34.5723C7.08261 36.2272 9.32511 37.16 11.6655 37.167H11.667L28.333 37.167L28.3345 37.167C30.6749 37.16 32.9174 36.2272 34.5723 34.5723C36.2272 32.9174 37.16 30.6749 37.167 28.3345V28.333L37.167 11.667L37.167 11.6655C37.16 9.32511 36.2272 7.08261 34.5723 5.42772C32.9174 3.77283 30.6749 2.84003 28.3345 2.83304ZM11.667 0.5H28.333C34.4739 0.5 39.5 5.52614 39.5 11.667V28.333C39.5 34.4739 34.4739 39.5 28.333 39.5H11.667C5.52614 39.5 0.5 34.4739 0.5 28.333V11.667C0.5 5.52614 5.52614 0.5 11.667 0.5Z" fill="#F1F2F6" stroke="black"/>
</svg>
