<svg width="80" height="80" viewBox="0 0 80 80" fill="none" xmlns="http://www.w3.org/2000/svg">
<path d="M61.6661 23.334C60.6772 23.334 59.7105 23.0407 58.8882 22.4913C58.066 21.9419 57.4251 21.161 57.0467 20.2474C56.6682 19.3338 56.5692 18.3284 56.7622 17.3585C56.9551 16.3886 57.4313 15.4977 58.1305 14.7985C58.8298 14.0992 59.7207 13.623 60.6906 13.4301C61.6605 13.2371 62.6659 13.3362 63.5795 13.7146C64.4931 14.093 65.274 14.7339 65.8234 15.5561C66.3728 16.3784 66.6661 17.3451 66.6661 18.334C66.6675 18.991 66.5391 19.6418 66.2883 20.2491C66.0376 20.8563 65.6693 21.4081 65.2048 21.8727C64.7402 22.3372 64.1884 22.7055 63.5812 22.9563C62.9739 23.207 62.3231 23.3354 61.6661 23.334ZM40 26.6661C42.6372 26.6661 45.2152 27.4482 47.4079 28.9133C49.6007 30.3785 51.3097 32.4609 52.319 34.8974C53.3282 37.3338 53.5922 40.0148 53.0777 42.6014C52.5632 45.1879 51.2933 47.5638 49.4285 49.4286C47.5637 51.2934 45.1879 52.5633 42.6013 53.0778C40.0148 53.5923 37.3338 53.3282 34.8973 52.319C32.4609 51.3098 30.3784 49.6007 28.9133 47.408C27.4481 45.2152 26.6661 42.6373 26.6661 40.0001C26.6699 36.4648 28.0759 33.0755 30.5757 30.5757C33.0755 28.0759 36.4648 26.6699 40 26.6661ZM40 20.0001C36.0444 20.0001 32.1776 21.173 28.8886 23.3707C25.5996 25.5683 23.0362 28.6919 21.5224 32.3464C20.0087 36.0009 19.6126 40.0222 20.3843 43.9019C21.156 47.7815 23.0608 51.3451 25.8579 54.1422C28.6549 56.9392 32.2186 58.8441 36.0982 59.6158C39.9778 60.3875 43.9992 59.9914 47.6537 58.4776C51.3082 56.9639 54.4318 54.4004 56.6294 51.1115C58.827 47.8225 60 43.9557 60 40.0001C60 34.6957 57.8929 29.6087 54.1421 25.8579C50.3914 22.1072 45.3043 20.0001 40 20.0001Z" fill="#F1F2F6"/>
<path d="M56.6661 6.66607C61.0826 6.67926 65.3145 8.43957 68.4375 11.5625C71.5604 14.6855 73.3207 18.9174 73.3339 23.3339V56.6661C73.3207 61.0826 71.5604 65.3145 68.4375 68.4375C65.3145 71.5604 61.0826 73.3207 56.6661 73.3339H23.3339C18.9174 73.3207 14.6855 71.5604 11.5625 68.4375C8.43957 65.3145 6.67926 61.0826 6.66607 56.6661V23.3339C6.67926 18.9174 8.43957 14.6855 11.5625 11.5625C14.6855 8.43957 18.9174 6.67926 23.3339 6.66607H56.6661ZM56.6661 0H23.3339C10.5 0 0 10.5 0 23.3339V56.6661C0 69.5 10.5 80 23.3339 80H56.6661C69.5 80 80 69.5 80 56.6661V23.3339C80 10.5 69.5 0 56.6661 0Z" fill="#F1F2F6"/>
</svg>
