<svg width="133" height="182" viewBox="0 0 133 182" fill="none" xmlns="http://www.w3.org/2000/svg">
<path d="M56.8078 99.9358C59.7147 99.7617 61.8795 96.1154 61.5993 91.8374C61.3214 87.5119 58.7319 84.2041 55.8252 84.3865C52.8844 84.5897 50.7196 88.2017 50.9998 92.4799C51.278 96.7961 53.8675 100.105 56.8078 99.9358Z" fill="#F8AC1A"/>
<path d="M45.473 99.856C47.3251 99.483 48.3729 96.941 47.8193 94.2214C47.231 91.5145 45.2927 89.6189 43.4406 89.9834C41.5882 90.3867 40.5414 92.8947 41.095 95.6143C41.6487 98.333 43.6199 100.25 45.473 99.856Z" fill="#F8AC1A"/>
<path d="M37.5926 102.548C38.8993 102.133 39.5228 100.227 38.9178 98.2717C38.3135 96.3043 36.7368 95.0322 35.4298 95.452C34.0891 95.8672 33.5 97.7733 34.1046 99.7284C34.6754 101.695 36.2526 102.933 37.5926 102.548Z" fill="#F8AC1A"/>
<path d="M28.4744 101.072C27.3008 101.636 27.0213 103.443 27.8027 105.167C28.5845 106.856 30.2021 107.787 31.3418 107.226C32.5152 106.671 32.7946 104.864 32.0133 103.175C31.2319 101.477 29.6131 100.555 28.4744 101.072Z" fill="#F8AC1A"/>
<path d="M24.3207 108.163C23.5266 108.522 23.3279 109.749 23.85 110.855C24.4046 112.001 25.4502 112.602 26.2095 112.243C27.0026 111.884 27.2004 110.695 26.6795 109.555C26.1241 108.413 25.0796 107.813 24.3207 108.163Z" fill="#F8AC1A"/>
<path d="M64.3432 106.277C62.6384 103.077 59.4261 101.594 54.6464 101.91C54.6464 101.91 49.5103 102.539 47.8267 103.018C46.1082 103.492 36.4552 106.081 36.4552 106.081C29.9612 107.85 26.0897 114.532 27.8209 121.075C28.7049 124.277 33.3248 131.462 33.7678 133.011L41.1647 150.352C42.2447 153.968 43.4234 162.307 44.356 166.399C46.3764 175.272 53.8593 181.152 61.1016 179.502C62.1534 179.263 63.0901 178.966 63.9246 178.603C43.5242 163.987 40.7427 122.225 64.3432 106.277Z" fill="#F8AC1A"/>
<path d="M76.9815 91.2123C79.9169 91.4474 82.5801 88.1977 82.9561 83.8887C83.3312 79.618 81.2491 75.9582 78.313 75.689C75.4111 75.4408 72.7487 78.6901 72.3728 83.0083C71.9978 87.2788 74.0799 90.9726 76.9815 91.2123Z" fill="#55AF31"/>
<path d="M88.3151 91.3871C90.1588 91.8232 92.1727 89.9506 92.7872 87.2448C93.402 84.5384 92.4117 82.0071 90.5685 81.5628C88.7247 81.1568 86.7447 83.0078 86.0965 85.7012C85.4822 88.4078 86.4715 90.9726 88.3151 91.3871Z" fill="#55AF31"/>
<path d="M96.1331 94.2561C97.4646 94.6707 99.069 93.4693 99.6833 91.516C100.333 89.5746 99.7861 87.6553 98.4542 87.2105C97.1574 86.7612 95.553 87.9975 94.9043 89.9506C94.2558 91.8917 94.8359 93.8116 96.1331 94.2561Z" fill="#55AF31"/>
<path d="M105.282 92.9862C104.156 92.4434 102.517 93.3282 101.698 95.0086C100.878 96.68 101.117 98.4928 102.278 99.0742C103.405 99.6601 105.043 98.7665 105.863 97.0948C106.682 95.3887 106.443 93.5762 105.282 92.9862Z" fill="#55AF31"/>
<path d="M109.277 100.169C108.526 99.801 107.467 100.378 106.887 101.507C106.341 102.636 106.511 103.828 107.297 104.205C108.048 104.581 109.106 104.004 109.687 102.871C110.233 101.776 110.061 100.545 109.277 100.169Z" fill="#55AF31"/>
<path d="M97.1914 97.8131C97.1914 97.8131 87.5985 95.0086 85.8917 94.4955C84.2186 93.9784 79.098 93.2342 79.098 93.2342C77.0539 93.0528 75.2917 93.2099 73.8029 93.6952C65.2873 116.393 96.1608 128.551 80.9706 155.382C70.9043 170.662 54.4464 141.483 65.3929 119.196C50.7384 133.878 56.9754 165.982 70.9048 170.662C78.1077 172.475 85.7204 166.764 87.9401 157.94C88.9644 153.87 90.3295 145.559 91.4899 141.967L99.2734 124.798C99.7514 123.259 104.531 116.18 105.487 112.999C107.365 106.496 103.643 99.7287 97.1914 97.8131Z" fill="#55AF31"/>
<path d="M34.5624 68.3423C34.9624 67.1263 35.6664 66.1343 36.6744 65.3663C37.6824 64.5983 38.9304 64.2143 40.4184 64.2143C41.6504 64.2143 42.7464 64.4863 43.7064 65.0303C44.6664 65.5583 45.4104 66.3263 45.9384 67.3343C46.4664 68.3263 46.7304 69.5023 46.7304 70.8623C46.7304 72.2223 46.4664 73.4063 45.9384 74.4143C45.4104 75.4063 44.6664 76.1743 43.7064 76.7183C42.7464 77.2463 41.6504 77.5103 40.4184 77.5103C38.9304 77.5103 37.6744 77.1263 36.6504 76.3583C35.6264 75.5903 34.9304 74.5983 34.5624 73.3823V77.3423H34.1064V59.5823H34.5624V68.3423ZM46.2504 70.8623C46.2504 69.5823 46.0104 68.4783 45.5304 67.5503C45.0504 66.6063 44.3704 65.8863 43.4904 65.3903C42.6264 64.8943 41.6024 64.6463 40.4184 64.6463C39.2984 64.6463 38.2904 64.9103 37.3944 65.4383C36.5144 65.9503 35.8184 66.6783 35.3064 67.6223C34.8104 68.5503 34.5624 69.6303 34.5624 70.8623C34.5624 72.0943 34.8104 73.1823 35.3064 74.1263C35.8184 75.0543 36.5144 75.7823 37.3944 76.3103C38.2904 76.8223 39.2984 77.0783 40.4184 77.0783C41.6024 77.0783 42.6264 76.8303 43.4904 76.3343C44.3704 75.8383 45.0504 75.1263 45.5304 74.1983C46.0104 73.2543 46.2504 72.1423 46.2504 70.8623ZM55.848 77.0783C57.304 77.0783 58.528 76.7103 59.52 75.9743C60.512 75.2383 61.112 74.2303 61.32 72.9503H61.8C61.576 74.3103 60.936 75.4143 59.88 76.2623C58.84 77.0943 57.496 77.5103 55.848 77.5103C54.648 77.5103 53.576 77.2463 52.632 76.7183C51.688 76.1903 50.944 75.4223 50.4 74.4143C49.872 73.4063 49.608 72.2223 49.608 70.8623C49.608 69.5023 49.872 68.3183 50.4 67.3103C50.944 66.3023 51.688 65.5343 52.632 65.0063C53.576 64.4783 54.648 64.2143 55.848 64.2143C57.112 64.2143 58.192 64.4863 59.088 65.0303C59.984 65.5583 60.656 66.2463 61.104 67.0943C61.568 67.9423 61.8 68.8383 61.8 69.7823C61.8 70.3583 61.792 70.7903 61.776 71.0783H50.088C50.104 72.4063 50.376 73.5183 50.904 74.4143C51.448 75.3103 52.152 75.9823 53.016 76.4303C53.88 76.8623 54.824 77.0783 55.848 77.0783ZM55.848 64.6463C54.824 64.6463 53.88 64.8703 53.016 65.3183C52.152 65.7503 51.448 66.4143 50.904 67.3103C50.376 68.2063 50.104 69.3183 50.088 70.6463H61.368C61.448 69.3183 61.232 68.2063 60.72 67.3103C60.224 66.4143 59.536 65.7503 58.656 65.3183C57.792 64.8703 56.856 64.6463 55.848 64.6463ZM76.9912 60.0623C75.5992 60.0623 74.6312 60.3343 74.0872 60.8783C73.5432 61.4063 73.2712 62.2703 73.2712 63.4703V64.3823H76.9912V64.8863H73.2712V77.3423H72.7912V64.8863H70.6792V64.3823H72.7912V63.4703C72.7912 62.1583 73.1112 61.1823 73.7512 60.5423C74.3912 59.9023 75.4712 59.5823 76.9912 59.5823V60.0623ZM80.1198 61.0703C79.9438 61.0703 79.7918 61.0143 79.6638 60.9023C79.5518 60.7743 79.4958 60.6143 79.4958 60.4223C79.4958 60.2303 79.5518 60.0783 79.6638 59.9663C79.7918 59.8383 79.9438 59.7743 80.1198 59.7743C80.2958 59.7743 80.4398 59.8383 80.5518 59.9663C80.6798 60.0783 80.7438 60.2303 80.7438 60.4223C80.7438 60.6143 80.6798 60.7743 80.5518 60.9023C80.4398 61.0143 80.2958 61.0703 80.1198 61.0703ZM80.3598 64.3823V77.3423H79.8798V64.3823H80.3598ZM85.4822 64.8623V73.9343C85.4822 74.7183 85.5702 75.3183 85.7462 75.7343C85.9222 76.1503 86.2022 76.4463 86.5862 76.6223C86.9702 76.7823 87.5062 76.8623 88.1942 76.8623H89.5622V77.3423H88.1462C87.0262 77.3423 86.2182 77.0863 85.7222 76.5743C85.2422 76.0623 85.0022 75.1823 85.0022 73.9343V64.8623H82.8902V64.3823H85.0022V61.0703H85.4822V64.3823H89.5622V64.8623H85.4822ZM93.4715 60.4463L93.3995 73.5743H92.9675L92.8955 60.4463H93.4715ZM93.2315 77.3903C93.0555 77.3903 92.9035 77.3343 92.7755 77.2223C92.6635 77.0943 92.6075 76.9343 92.6075 76.7423C92.6075 76.5503 92.6635 76.3983 92.7755 76.2863C92.9035 76.1583 93.0555 76.0943 93.2315 76.0943C93.4075 76.0943 93.5515 76.1583 93.6635 76.2863C93.7915 76.3983 93.8555 76.5503 93.8555 76.7423C93.8555 76.9343 93.7915 77.0943 93.6635 77.2223C93.5515 77.3343 93.4075 77.3903 93.2315 77.3903Z" fill="black"/>
<path d="M10.0506 64.1937L3.59459 56.7297V64.1937H0.858594V47.5137H3.59459V55.1217L10.0746 47.5137H13.5066L6.25859 55.8657L13.6266 64.1937H10.0506ZM18.7821 52.8897C19.1821 52.2177 19.7101 51.6977 20.3661 51.3297C21.0381 50.9457 21.8301 50.7537 22.7421 50.7537V53.5857H22.0461C20.9741 53.5857 20.1581 53.8577 19.5981 54.4017C19.0541 54.9457 18.7821 55.8897 18.7821 57.2337V64.1937H16.0461V50.9697H18.7821V52.8897ZM30.993 64.4097C29.745 64.4097 28.617 64.1297 27.609 63.5697C26.601 62.9937 25.809 62.1937 25.233 61.1697C24.657 60.1297 24.369 58.9297 24.369 57.5697C24.369 56.2257 24.665 55.0337 25.257 53.9937C25.849 52.9537 26.657 52.1537 27.681 51.5937C28.705 51.0337 29.849 50.7537 31.113 50.7537C32.377 50.7537 33.521 51.0337 34.545 51.5937C35.569 52.1537 36.377 52.9537 36.969 53.9937C37.561 55.0337 37.857 56.2257 37.857 57.5697C37.857 58.9137 37.553 60.1057 36.945 61.1457C36.337 62.1857 35.505 62.9937 34.449 63.5697C33.409 64.1297 32.257 64.4097 30.993 64.4097ZM30.993 62.0337C31.697 62.0337 32.353 61.8657 32.961 61.5297C33.585 61.1937 34.089 60.6897 34.473 60.0177C34.857 59.3457 35.049 58.5297 35.049 57.5697C35.049 56.6097 34.865 55.8017 34.497 55.1457C34.129 54.4737 33.641 53.9697 33.033 53.6337C32.425 53.2977 31.769 53.1297 31.065 53.1297C30.361 53.1297 29.705 53.2977 29.097 53.6337C28.505 53.9697 28.033 54.4737 27.681 55.1457C27.329 55.8017 27.153 56.6097 27.153 57.5697C27.153 58.9937 27.513 60.0977 28.233 60.8817C28.969 61.6497 29.889 62.0337 30.993 62.0337ZM45.7937 57.5937L51.8897 64.1937H48.1937L43.2977 58.5057V64.1937H40.5617V46.4337H43.2977V56.7537L48.0977 50.9697H51.8897L45.7937 57.5937ZM59.5868 64.4097C58.3388 64.4097 57.2108 64.1297 56.2028 63.5697C55.1948 62.9937 54.4028 62.1937 53.8268 61.1697C53.2508 60.1297 52.9628 58.9297 52.9628 57.5697C52.9628 56.2257 53.2588 55.0337 53.8508 53.9937C54.4428 52.9537 55.2508 52.1537 56.2748 51.5937C57.2988 51.0337 58.4428 50.7537 59.7068 50.7537C60.9708 50.7537 62.1148 51.0337 63.1388 51.5937C64.1628 52.1537 64.9708 52.9537 65.5628 53.9937C66.1548 55.0337 66.4508 56.2257 66.4508 57.5697C66.4508 58.9137 66.1468 60.1057 65.5388 61.1457C64.9308 62.1857 64.0988 62.9937 63.0428 63.5697C62.0028 64.1297 60.8508 64.4097 59.5868 64.4097ZM59.5868 62.0337C60.2908 62.0337 60.9468 61.8657 61.5548 61.5297C62.1788 61.1937 62.6828 60.6897 63.0668 60.0177C63.4508 59.3457 63.6428 58.5297 63.6428 57.5697C63.6428 56.6097 63.4588 55.8017 63.0908 55.1457C62.7228 54.4737 62.2348 53.9697 61.6268 53.6337C61.0188 53.2977 60.3628 53.1297 59.6588 53.1297C58.9548 53.1297 58.2988 53.2977 57.6908 53.6337C57.0988 53.9697 56.6268 54.4737 56.2748 55.1457C55.9228 55.8017 55.7468 56.6097 55.7468 57.5697C55.7468 58.9937 56.1068 60.0977 56.8268 60.8817C57.5628 61.6497 58.4828 62.0337 59.5868 62.0337ZM85.1635 50.7537C86.2035 50.7537 87.1315 50.9697 87.9475 51.4017C88.7795 51.8337 89.4275 52.4737 89.8915 53.3217C90.3715 54.1697 90.6115 55.1937 90.6115 56.3937V64.1937H87.8995V56.8017C87.8995 55.6177 87.6035 54.7137 87.0115 54.0897C86.4195 53.4497 85.6115 53.1297 84.5875 53.1297C83.5635 53.1297 82.7475 53.4497 82.1395 54.0897C81.5475 54.7137 81.2515 55.6177 81.2515 56.8017V64.1937H78.5395V56.8017C78.5395 55.6177 78.2435 54.7137 77.6515 54.0897C77.0595 53.4497 76.2515 53.1297 75.2275 53.1297C74.2035 53.1297 73.3875 53.4497 72.7795 54.0897C72.1875 54.7137 71.8915 55.6177 71.8915 56.8017V64.1937H69.1555V50.9697H71.8915V52.4817C72.3395 51.9377 72.9075 51.5137 73.5955 51.2097C74.2835 50.9057 75.0195 50.7537 75.8035 50.7537C76.8595 50.7537 77.8035 50.9777 78.6355 51.4257C79.4675 51.8737 80.1075 52.5217 80.5555 53.3697C80.9555 52.5697 81.5795 51.9377 82.4275 51.4737C83.2755 50.9937 84.1875 50.7537 85.1635 50.7537ZM95.485 49.2177C94.989 49.2177 94.573 49.0497 94.237 48.7137C93.901 48.3777 93.733 47.9617 93.733 47.4657C93.733 46.9697 93.901 46.5537 94.237 46.2177C94.573 45.8817 94.989 45.7137 95.485 45.7137C95.965 45.7137 96.373 45.8817 96.709 46.2177C97.045 46.5537 97.213 46.9697 97.213 47.4657C97.213 47.9617 97.045 48.3777 96.709 48.7137C96.373 49.0497 95.965 49.2177 95.485 49.2177ZM96.829 50.9697V64.1937H94.093V50.9697H96.829ZM112.541 57.2577C112.541 57.7537 112.509 58.2017 112.445 58.6017H102.341C102.421 59.6577 102.813 60.5057 103.517 61.1457C104.221 61.7857 105.085 62.1057 106.109 62.1057C107.581 62.1057 108.621 61.4897 109.229 60.2577H112.181C111.781 61.4737 111.053 62.4737 109.997 63.2577C108.957 64.0257 107.661 64.4097 106.109 64.4097C104.845 64.4097 103.709 64.1297 102.701 63.5697C101.709 62.9937 100.925 62.1937 100.349 61.1697C99.7891 60.1297 99.5091 58.9297 99.5091 57.5697C99.5091 56.2097 99.7811 55.0177 100.325 53.9937C100.885 52.9537 101.661 52.1537 102.653 51.5937C103.661 51.0337 104.813 50.7537 106.109 50.7537C107.357 50.7537 108.469 51.0257 109.445 51.5697C110.421 52.1137 111.181 52.8817 111.725 53.8737C112.269 54.8497 112.541 55.9777 112.541 57.2577ZM109.685 56.3937C109.669 55.3857 109.309 54.5777 108.605 53.9697C107.901 53.3617 107.029 53.0577 105.989 53.0577C105.045 53.0577 104.237 53.3617 103.565 53.9697C102.893 54.5617 102.493 55.3697 102.365 56.3937H109.685ZM117.97 52.8897C118.37 52.2177 118.898 51.6977 119.554 51.3297C120.226 50.9457 121.018 50.7537 121.93 50.7537V53.5857H121.234C120.162 53.5857 119.346 53.8577 118.786 54.4017C118.242 54.9457 117.97 55.8897 117.97 57.2337V64.1937H115.234V50.9697H117.97V52.8897ZM126.869 61.9617H132.869V64.1937H123.701V61.9617L129.725 53.2017H123.701V50.9697H132.869V53.2017L126.869 61.9617Z" fill="black"/>
</svg>
