<svg width="160" height="40" viewBox="0 0 160 40" fill="none" xmlns="http://www.w3.org/2000/svg">
<path d="M159.5 20C159.5 22.4755 157.481 24.977 153.459 27.3545C149.47 29.7122 143.665 31.8527 136.447 33.6571C122.02 37.2638 102.063 39.5 80 39.5C57.9372 39.5 37.9798 37.2638 23.5527 33.6571C16.3353 31.8527 10.5301 29.7122 6.54121 27.3545C2.51888 24.977 0.5 22.4755 0.5 20C0.5 17.5245 2.51888 15.023 6.54121 12.6455C10.5301 10.2878 16.3353 8.14728 23.5527 6.34294C37.9798 2.73616 57.9372 0.5 80 0.5C102.063 0.5 122.02 2.73616 136.447 6.34294C143.665 8.14728 149.47 10.2878 153.459 12.6455C157.481 15.023 159.5 17.5245 159.5 20Z" fill="white" stroke="#EA212A"/>
<path d="M48.784 16.82C48.784 17.984 48.442 18.854 47.758 19.43C47.074 20.006 46.066 20.294 44.734 20.294H41.89V26H41.53V13.328H44.734C46.126 13.328 47.146 13.634 47.794 14.246C48.454 14.858 48.784 15.716 48.784 16.82ZM44.734 19.916C46.03 19.916 46.966 19.646 47.542 19.106C48.13 18.566 48.424 17.804 48.424 16.82C48.424 15.788 48.136 15.008 47.56 14.48C46.984 13.952 46.042 13.688 44.734 13.688H41.89V19.916H44.734ZM55.3418 26.126C54.4418 26.126 53.6318 25.928 52.9118 25.532C52.1918 25.124 51.6218 24.548 51.2018 23.804C50.7938 23.048 50.5898 22.16 50.5898 21.14C50.5898 20.12 50.7938 19.238 51.2018 18.494C51.6218 17.738 52.1918 17.162 52.9118 16.766C53.6318 16.358 54.4418 16.154 55.3418 16.154C56.2418 16.154 57.0518 16.358 57.7718 16.766C58.4918 17.162 59.0558 17.738 59.4638 18.494C59.8718 19.238 60.0758 20.12 60.0758 21.14C60.0758 22.16 59.8718 23.048 59.4638 23.804C59.0558 24.548 58.4918 25.124 57.7718 25.532C57.0518 25.928 56.2418 26.126 55.3418 26.126ZM55.3418 25.802C56.1218 25.802 56.8418 25.634 57.5018 25.298C58.1618 24.95 58.6958 24.428 59.1038 23.732C59.5118 23.036 59.7158 22.172 59.7158 21.14C59.7158 20.108 59.5118 19.244 59.1038 18.548C58.6958 17.852 58.1618 17.336 57.5018 17C56.8418 16.652 56.1218 16.478 55.3418 16.478C54.5618 16.478 53.8358 16.652 53.1638 17C52.5038 17.336 51.9698 17.858 51.5618 18.566C51.1538 19.262 50.9498 20.12 50.9498 21.14C50.9498 22.16 51.1538 23.024 51.5618 23.732C51.9698 24.428 52.5038 24.95 53.1638 25.298C53.8358 25.634 54.5618 25.802 55.3418 25.802ZM63.0361 19.25C63.3361 18.338 63.8641 17.594 64.6201 17.018C65.3761 16.442 66.3121 16.154 67.4281 16.154C68.3521 16.154 69.1741 16.358 69.8941 16.766C70.6141 17.162 71.1721 17.738 71.5681 18.494C71.9641 19.238 72.1621 20.12 72.1621 21.14C72.1621 22.16 71.9641 23.048 71.5681 23.804C71.1721 24.548 70.6141 25.124 69.8941 25.532C69.1741 25.928 68.3521 26.126 67.4281 26.126C66.3121 26.126 65.3701 25.838 64.6021 25.262C63.8341 24.686 63.3121 23.942 63.0361 23.03V26H62.6941V12.68H63.0361V19.25ZM71.8021 21.14C71.8021 20.18 71.6221 19.352 71.2621 18.656C70.9021 17.948 70.3921 17.408 69.7321 17.036C69.0841 16.664 68.3161 16.478 67.4281 16.478C66.5881 16.478 65.8321 16.676 65.1601 17.072C64.5001 17.456 63.9781 18.002 63.5941 18.71C63.2221 19.406 63.0361 20.216 63.0361 21.14C63.0361 22.064 63.2221 22.88 63.5941 23.588C63.9781 24.284 64.5001 24.83 65.1601 25.226C65.8321 25.61 66.5881 25.802 67.4281 25.802C68.3161 25.802 69.0841 25.616 69.7321 25.244C70.3921 24.872 70.9021 24.338 71.2621 23.642C71.6221 22.934 71.8021 22.1 71.8021 21.14ZM74.9502 13.796C74.8182 13.796 74.7042 13.754 74.6082 13.67C74.5242 13.574 74.4822 13.454 74.4822 13.31C74.4822 13.166 74.5242 13.052 74.6082 12.968C74.7042 12.872 74.8182 12.824 74.9502 12.824C75.0822 12.824 75.1902 12.872 75.2742 12.968C75.3702 13.052 75.4182 13.166 75.4182 13.31C75.4182 13.454 75.3702 13.574 75.2742 13.67C75.1902 13.754 75.0822 13.796 74.9502 13.796ZM75.1302 16.28V26H74.7702V16.28H75.1302ZM82.428 25.802C83.52 25.802 84.438 25.526 85.182 24.974C85.926 24.422 86.376 23.666 86.532 22.706H86.892C86.724 23.726 86.244 24.554 85.452 25.19C84.672 25.814 83.664 26.126 82.428 26.126C81.528 26.126 80.724 25.928 80.016 25.532C79.308 25.136 78.75 24.56 78.342 23.804C77.946 23.048 77.748 22.16 77.748 21.14C77.748 20.12 77.946 19.232 78.342 18.476C78.75 17.72 79.308 17.144 80.016 16.748C80.724 16.352 81.528 16.154 82.428 16.154C83.376 16.154 84.186 16.358 84.858 16.766C85.53 17.162 86.034 17.678 86.37 18.314C86.718 18.95 86.892 19.622 86.892 20.33C86.892 20.762 86.886 21.086 86.874 21.302H78.108C78.12 22.298 78.324 23.132 78.72 23.804C79.128 24.476 79.656 24.98 80.304 25.316C80.952 25.64 81.66 25.802 82.428 25.802ZM82.428 16.478C81.66 16.478 80.952 16.646 80.304 16.982C79.656 17.306 79.128 17.804 78.72 18.476C78.324 19.148 78.12 19.982 78.108 20.978H86.568C86.628 19.982 86.466 19.148 86.082 18.476C85.71 17.804 85.194 17.306 84.534 16.982C83.886 16.646 83.184 16.478 82.428 16.478ZM89.8607 18.638C90.2447 16.922 91.5227 16.064 93.6947 16.064V16.46H93.5327C92.5127 16.46 91.6427 16.76 90.9227 17.36C90.2147 17.948 89.8607 18.902 89.8607 20.222V26H89.5007V16.28H89.8607V18.638ZM94.9707 25.676H100.839V26H94.5927V25.676L100.263 16.604H94.7727V16.28H100.659V16.604L94.9707 25.676Z" fill="black"/>
<path d="M114.646 26.3536C114.842 26.5488 115.158 26.5488 115.354 26.3536L118.536 23.1716C118.731 22.9763 118.731 22.6597 118.536 22.4645C118.34 22.2692 118.024 22.2692 117.828 22.4645L115 25.2929L112.172 22.4645C111.976 22.2692 111.66 22.2692 111.464 22.4645C111.269 22.6597 111.269 22.9763 111.464 23.1716L114.646 26.3536ZM114.5 12L114.5 26L115.5 26L115.5 12L114.5 12Z" fill="black"/>
</svg>
