<svg width="574" height="161" viewBox="0 0 574 161" fill="none" xmlns="http://www.w3.org/2000/svg">
<path d="M171.848 42.2946L171.334 40.154H123.907V59.846H152.244C149.302 73.5513 135.65 80.7656 124.499 80.7656C116.385 80.7656 107.832 77.4174 102.171 72.0357C99.1846 69.1509 96.8071 65.7166 95.1751 61.9293C93.5431 58.1419 92.6886 54.076 92.6605 49.9643C92.6605 41.6696 96.4603 33.3728 101.989 27.9152C107.518 22.4576 115.869 19.404 124.171 19.404C133.68 19.404 140.494 24.3571 143.043 26.6161L157.307 12.6964C153.122 9.08928 141.627 0 123.712 0C109.889 0 96.6355 5.1942 86.9472 14.6674C77.3863 23.9955 72.4375 37.4844 72.4375 50C72.4375 62.5156 77.1201 75.3304 86.3852 84.7321C96.2851 94.7589 110.306 100 124.742 100C137.878 100 150.328 94.9509 159.202 85.7902C167.926 76.7723 172.438 64.2946 172.438 51.2143C172.438 45.7076 171.873 42.4375 171.848 42.2946Z" fill="black"/>
<path d="M37.9396 136.126C37.1116 136.126 36.3796 135.982 35.7436 135.694C35.1196 135.406 34.6276 135.004 34.2676 134.488C33.9076 133.972 33.7156 133.396 33.6916 132.76H35.0236C35.0836 133.372 35.3536 133.912 35.8336 134.38C36.3136 134.836 37.0156 135.064 37.9396 135.064C38.7916 135.064 39.4636 134.848 39.9556 134.416C40.4596 133.972 40.7116 133.414 40.7116 132.742C40.7116 132.202 40.5736 131.77 40.2976 131.446C40.0216 131.11 39.6796 130.864 39.2716 130.708C38.8636 130.54 38.2996 130.36 37.5796 130.168C36.7396 129.94 36.0736 129.718 35.5816 129.502C35.0896 129.286 34.6696 128.95 34.3216 128.494C33.9736 128.038 33.7996 127.42 33.7996 126.64C33.7996 125.992 33.9676 125.416 34.3036 124.912C34.6396 124.396 35.1136 123.994 35.7256 123.706C36.3376 123.418 37.0396 123.274 37.8316 123.274C38.9956 123.274 39.9316 123.562 40.6396 124.138C41.3596 124.702 41.7736 125.434 41.8816 126.334H40.5136C40.4296 125.818 40.1476 125.362 39.6676 124.966C39.1876 124.558 38.5396 124.354 37.7236 124.354C36.9676 124.354 36.3376 124.558 35.8336 124.966C35.3296 125.362 35.0776 125.908 35.0776 126.604C35.0776 127.132 35.2156 127.558 35.4916 127.882C35.7676 128.206 36.1096 128.452 36.5176 128.62C36.9376 128.788 37.5016 128.968 38.2096 129.16C39.0256 129.388 39.6856 129.616 40.1896 129.844C40.6936 130.06 41.1196 130.396 41.4676 130.852C41.8156 131.308 41.9896 131.92 41.9896 132.688C41.9896 133.276 41.8336 133.834 41.5216 134.362C41.2096 134.89 40.7476 135.316 40.1356 135.64C39.5236 135.964 38.7916 136.126 37.9396 136.126ZM49.7344 136L45.6844 131.59V136H44.4244V122.68H45.6844V130.564L49.6444 126.172H51.4084L46.7464 131.068L51.4444 136H49.7344ZM54.3328 122.68V136H53.0728V122.68H54.3328ZM66.0781 130.582C66.0781 131.014 66.0661 131.344 66.0421 131.572H57.8881C57.9241 132.316 58.1041 132.952 58.4281 133.48C58.7521 134.008 59.1781 134.41 59.7061 134.686C60.2341 134.95 60.8101 135.082 61.4341 135.082C62.2501 135.082 62.9341 134.884 63.4861 134.488C64.0501 134.092 64.4221 133.558 64.6021 132.886H65.9341C65.6941 133.846 65.1781 134.632 64.3861 135.244C63.6061 135.844 62.6221 136.144 61.4341 136.144C60.5101 136.144 59.6821 135.94 58.9501 135.532C58.2181 135.112 57.6421 134.524 57.2221 133.768C56.8141 133 56.6101 132.106 56.6101 131.086C56.6101 130.066 56.8141 129.172 57.2221 128.404C57.6301 127.636 58.2001 127.048 58.9321 126.64C59.6641 126.232 60.4981 126.028 61.4341 126.028C62.3701 126.028 63.1861 126.232 63.8821 126.64C64.5901 127.048 65.1301 127.6 65.5021 128.296C65.8861 128.98 66.0781 129.742 66.0781 130.582ZM64.8001 130.546C64.8121 129.814 64.6621 129.19 64.3501 128.674C64.0501 128.158 63.6361 127.768 63.1081 127.504C62.5801 127.24 62.0041 127.108 61.3801 127.108C60.4441 127.108 59.6461 127.408 58.9861 128.008C58.3261 128.608 57.9601 129.454 57.8881 130.546H64.8001ZM69.6254 128.332C69.9374 127.672 70.4294 127.126 71.1014 126.694C71.7854 126.25 72.5954 126.028 73.5314 126.028C74.4194 126.028 75.2174 126.238 75.9254 126.658C76.6454 127.066 77.2034 127.654 77.5994 128.422C78.0074 129.178 78.2114 130.06 78.2114 131.068C78.2114 132.076 78.0074 132.964 77.5994 133.732C77.2034 134.5 76.6454 135.094 75.9254 135.514C75.2174 135.934 74.4194 136.144 73.5314 136.144C72.6074 136.144 71.8034 135.928 71.1194 135.496C70.4354 135.052 69.9374 134.5 69.6254 133.84V140.644H68.3834V126.172H69.6254V128.332ZM76.9334 131.068C76.9334 130.252 76.7714 129.55 76.4474 128.962C76.1354 128.362 75.7034 127.906 75.1514 127.594C74.5994 127.282 73.9754 127.126 73.2794 127.126C72.6074 127.126 71.9894 127.288 71.4254 127.612C70.8734 127.936 70.4354 128.398 70.1114 128.998C69.7874 129.598 69.6254 130.294 69.6254 131.086C69.6254 131.878 69.7874 132.574 70.1114 133.174C70.4354 133.774 70.8734 134.236 71.4254 134.56C71.9894 134.884 72.6074 135.046 73.2794 135.046C73.9754 135.046 74.5994 134.89 75.1514 134.578C75.7034 134.254 76.1354 133.792 76.4474 133.192C76.7714 132.58 76.9334 131.872 76.9334 131.068ZM86.7113 128.332C87.0233 127.672 87.5153 127.126 88.1873 126.694C88.8713 126.25 89.6813 126.028 90.6173 126.028C91.5053 126.028 92.3033 126.238 93.0113 126.658C93.7313 127.066 94.2893 127.654 94.6853 128.422C95.0933 129.178 95.2973 130.06 95.2973 131.068C95.2973 132.076 95.0933 132.964 94.6853 133.732C94.2893 134.5 93.7313 135.094 93.0113 135.514C92.3033 135.934 91.5053 136.144 90.6173 136.144C89.6933 136.144 88.8893 135.928 88.2053 135.496C87.5213 135.052 87.0233 134.5 86.7113 133.84V140.644H85.4693V126.172H86.7113V128.332ZM94.0193 131.068C94.0193 130.252 93.8573 129.55 93.5333 128.962C93.2213 128.362 92.7893 127.906 92.2373 127.594C91.6853 127.282 91.0613 127.126 90.3653 127.126C89.6933 127.126 89.0753 127.288 88.5113 127.612C87.9593 127.936 87.5213 128.398 87.1973 128.998C86.8733 129.598 86.7113 130.294 86.7113 131.086C86.7113 131.878 86.8733 132.574 87.1973 133.174C87.5213 133.774 87.9593 134.236 88.5113 134.56C89.0753 134.884 89.6933 135.046 90.3653 135.046C91.0613 135.046 91.6853 134.89 92.2373 134.578C92.7893 134.254 93.2213 133.792 93.5333 133.192C93.8573 132.58 94.0193 131.872 94.0193 131.068ZM98.8758 122.68V136H97.6158V122.68H98.8758ZM101.153 131.068C101.153 130.06 101.351 129.178 101.747 128.422C102.155 127.654 102.713 127.066 103.421 126.658C104.141 126.238 104.951 126.028 105.851 126.028C106.787 126.028 107.591 126.244 108.263 126.676C108.947 127.108 109.439 127.66 109.739 128.332V126.172H110.999V136H109.739V133.822C109.427 134.494 108.929 135.052 108.245 135.496C107.573 135.928 106.769 136.144 105.833 136.144C104.945 136.144 104.141 135.934 103.421 135.514C102.713 135.094 102.155 134.5 101.747 133.732C101.351 132.964 101.153 132.076 101.153 131.068ZM109.739 131.086C109.739 130.294 109.577 129.598 109.253 128.998C108.929 128.398 108.485 127.936 107.921 127.612C107.369 127.288 106.757 127.126 106.085 127.126C105.389 127.126 104.765 127.282 104.213 127.594C103.661 127.906 103.223 128.362 102.899 128.962C102.587 129.55 102.431 130.252 102.431 131.068C102.431 131.872 102.587 132.58 102.899 133.192C103.223 133.792 103.661 134.254 104.213 134.578C104.765 134.89 105.389 135.046 106.085 135.046C106.757 135.046 107.369 134.884 107.921 134.56C108.485 134.236 108.929 133.774 109.253 133.174C109.577 132.574 109.739 131.878 109.739 131.086ZM121.976 126.172L116.144 140.626H114.83L116.738 135.946L112.706 126.172H114.092L117.44 134.56L120.68 126.172H121.976ZM134.726 128.8V129.862H127.724V128.8H134.726ZM150.187 133.012H144.463L143.365 136H142.033L146.623 123.58H148.045L152.617 136H151.285L150.187 133.012ZM149.809 131.968L147.325 125.164L144.841 131.968H149.809ZM159.247 125.992C160.423 125.992 161.383 126.358 162.127 127.09C162.871 127.81 163.243 128.86 163.243 130.24V136H162.001V130.384C162.001 129.316 161.731 128.5 161.191 127.936C160.663 127.372 159.937 127.09 159.013 127.09C158.065 127.09 157.309 127.39 156.745 127.99C156.181 128.59 155.899 129.472 155.899 130.636V136H154.639V126.172H155.899V127.846C156.211 127.246 156.661 126.79 157.249 126.478C157.837 126.154 158.503 125.992 159.247 125.992ZM165.454 131.068C165.454 130.06 165.658 129.178 166.066 128.422C166.474 127.654 167.032 127.066 167.74 126.658C168.46 126.238 169.27 126.028 170.17 126.028C171.034 126.028 171.814 126.238 172.51 126.658C173.206 127.078 173.716 127.624 174.04 128.296V122.68H175.3V136H174.04V133.804C173.74 134.488 173.248 135.052 172.564 135.496C171.88 135.928 171.076 136.144 170.152 136.144C169.252 136.144 168.442 135.934 167.722 135.514C167.014 135.094 166.456 134.5 166.048 133.732C165.652 132.964 165.454 132.076 165.454 131.068ZM174.04 131.086C174.04 130.294 173.878 129.598 173.554 128.998C173.23 128.398 172.786 127.936 172.222 127.612C171.67 127.288 171.058 127.126 170.386 127.126C169.69 127.126 169.066 127.282 168.514 127.594C167.962 127.906 167.524 128.362 167.2 128.962C166.888 129.55 166.732 130.252 166.732 131.068C166.732 131.872 166.888 132.58 167.2 133.192C167.524 133.792 167.962 134.254 168.514 134.578C169.066 134.89 169.69 135.046 170.386 135.046C171.058 135.046 171.67 134.884 172.222 134.56C172.786 134.236 173.23 133.774 173.554 133.174C173.878 132.574 174.04 131.878 174.04 131.086ZM179.436 127.918C179.712 127.306 180.132 126.832 180.696 126.496C181.272 126.16 181.974 125.992 182.802 125.992V127.306H182.46C181.548 127.306 180.816 127.552 180.264 128.044C179.712 128.536 179.436 129.358 179.436 130.51V136H178.176V126.172H179.436V127.918ZM189 136.144C188.076 136.144 187.242 135.94 186.498 135.532C185.766 135.112 185.184 134.524 184.752 133.768C184.332 133 184.122 132.106 184.122 131.086C184.122 130.066 184.338 129.178 184.77 128.422C185.202 127.654 185.79 127.066 186.534 126.658C187.278 126.238 188.112 126.028 189.036 126.028C189.96 126.028 190.794 126.238 191.538 126.658C192.294 127.066 192.882 127.654 193.302 128.422C193.734 129.178 193.95 130.066 193.95 131.086C193.95 132.094 193.734 132.982 193.302 133.75C192.87 134.518 192.276 135.112 191.52 135.532C190.764 135.94 189.924 136.144 189 136.144ZM189 135.046C189.648 135.046 190.248 134.902 190.8 134.614C191.352 134.314 191.796 133.87 192.132 133.282C192.48 132.682 192.654 131.95 192.654 131.086C192.654 130.222 192.486 129.496 192.15 128.908C191.814 128.308 191.37 127.864 190.818 127.576C190.266 127.276 189.666 127.126 189.018 127.126C188.37 127.126 187.77 127.276 187.218 127.576C186.666 127.864 186.222 128.308 185.886 128.908C185.562 129.496 185.4 130.222 185.4 131.086C185.4 131.95 185.562 132.682 185.886 133.282C186.222 133.87 186.66 134.314 187.2 134.614C187.752 134.902 188.352 135.046 189 135.046ZM196.877 124.318C196.625 124.318 196.409 124.228 196.229 124.048C196.049 123.868 195.959 123.646 195.959 123.382C195.959 123.118 196.049 122.902 196.229 122.734C196.409 122.554 196.625 122.464 196.877 122.464C197.129 122.464 197.345 122.554 197.525 122.734C197.705 122.902 197.795 123.118 197.795 123.382C197.795 123.646 197.705 123.868 197.525 124.048C197.345 124.228 197.129 124.318 196.877 124.318ZM197.507 126.172V136H196.247V126.172H197.507ZM199.784 131.068C199.784 130.06 199.988 129.178 200.396 128.422C200.804 127.654 201.362 127.066 202.07 126.658C202.79 126.238 203.6 126.028 204.5 126.028C205.364 126.028 206.144 126.238 206.84 126.658C207.536 127.078 208.046 127.624 208.37 128.296V122.68H209.63V136H208.37V133.804C208.07 134.488 207.578 135.052 206.894 135.496C206.21 135.928 205.406 136.144 204.482 136.144C203.582 136.144 202.772 135.934 202.052 135.514C201.344 135.094 200.786 134.5 200.378 133.732C199.982 132.964 199.784 132.076 199.784 131.068ZM208.37 131.086C208.37 130.294 208.208 129.598 207.884 128.998C207.56 128.398 207.116 127.936 206.552 127.612C206 127.288 205.388 127.126 204.716 127.126C204.02 127.126 203.396 127.282 202.844 127.594C202.292 127.906 201.854 128.362 201.53 128.962C201.218 129.55 201.062 130.252 201.062 131.068C201.062 131.872 201.218 132.58 201.53 133.192C201.854 133.792 202.292 134.254 202.844 134.578C203.396 134.89 204.02 135.046 204.716 135.046C205.388 135.046 206 134.884 206.552 134.56C207.116 134.236 207.56 133.774 207.884 133.174C208.208 132.574 208.37 131.878 208.37 131.086Z" fill="black"/>
<path d="M506.812 0C479.192 0 456.812 22.3795 456.812 50C456.812 77.6205 479.192 100 506.812 100C534.433 100 556.812 77.6205 556.812 50C556.812 22.3795 534.433 0 506.812 0ZM487.839 71.8504C487.532 72.3738 487.093 72.8071 486.566 73.1068C486.038 73.4066 485.441 73.5622 484.835 73.558C484.217 73.5634 483.609 73.3965 483.08 73.0759C482.687 72.8478 482.342 72.5442 482.066 72.1825C481.79 71.8208 481.588 71.4082 481.472 70.9683C481.356 70.5285 481.328 70.07 481.389 69.6192C481.451 69.1684 481.601 68.7342 481.83 68.3415L485.243 62.6674C485.416 62.3745 485.662 62.1319 485.957 61.9635C486.252 61.7951 486.586 61.7069 486.926 61.7076H487.431C489.906 61.7076 491.638 63.1964 492.143 64.6384L487.839 71.8504ZM516.734 60.6897L494.384 60.7143H479.529C479.062 60.7163 478.599 60.6233 478.168 60.441C477.738 60.2587 477.349 59.9909 477.025 59.6538C476.702 59.3167 476.45 58.9173 476.285 58.4799C476.12 58.0426 476.046 57.5763 476.067 57.1094C476.138 55.2344 477.775 53.8147 479.638 53.8147H490.406L503.172 32.0848L499.038 25.0424C498.107 23.4375 498.52 21.3214 500.116 20.3125C500.51 20.058 500.95 19.8858 501.412 19.806C501.874 19.7263 502.347 19.7408 502.803 19.8486C503.259 19.9564 503.688 20.1553 504.066 20.4333C504.443 20.7114 504.76 21.0628 504.998 21.4665L507.208 25.2411H507.232L509.444 21.4665C509.682 21.0649 509.999 20.7154 510.375 20.4387C510.751 20.1621 511.179 19.964 511.633 19.8563C512.088 19.7486 512.559 19.7335 513.019 19.8119C513.48 19.8902 513.919 20.0605 514.312 20.3125C515.9 21.3214 516.308 23.4375 515.371 25.0491L511.237 32.0915L507.219 38.942L498.493 53.8214V53.846H511.353C512.964 53.846 514.984 54.7121 515.801 56.1049L515.873 56.25C516.594 57.4754 517.002 58.317 517.002 59.5424C516.99 59.9403 516.902 60.3322 516.741 60.6964L516.734 60.6897ZM534.089 60.7143H528.038V60.7388L532.462 68.2634C532.938 69.0559 533.084 70.0035 532.868 70.9023C532.652 71.801 532.092 72.5792 531.308 73.0692C530.765 73.4004 530.141 73.5757 529.504 73.5759C528.899 73.5756 528.305 73.4189 527.778 73.1208C527.252 72.8228 526.812 72.3936 526.5 71.875L519.962 60.7455L515.9 53.8259L510.658 44.8661C509.899 43.5867 509.487 42.1316 509.461 40.6442C509.436 39.1568 509.798 37.6885 510.513 36.3839C511.549 34.5558 512.342 34.0759 512.342 34.0759L524 53.7946H534.025C535.9 53.7946 537.509 55.2366 537.596 57.0871C537.614 57.5575 537.537 58.0268 537.369 58.4666C537.201 58.9065 536.946 59.3079 536.619 59.6467C536.292 59.9855 535.9 60.2547 535.467 60.4381C535.033 60.6216 534.567 60.7155 534.096 60.7143H534.089Z" fill="black"/>
<path d="M448.344 133.012H442.62L441.522 136H440.19L444.78 123.58H446.202L450.774 136H449.442L448.344 133.012ZM447.966 131.968L445.482 125.164L442.998 131.968H447.966ZM454.038 128.332C454.35 127.672 454.842 127.126 455.514 126.694C456.198 126.25 457.008 126.028 457.944 126.028C458.832 126.028 459.63 126.238 460.338 126.658C461.058 127.066 461.616 127.654 462.012 128.422C462.42 129.178 462.624 130.06 462.624 131.068C462.624 132.076 462.42 132.964 462.012 133.732C461.616 134.5 461.058 135.094 460.338 135.514C459.63 135.934 458.832 136.144 457.944 136.144C457.02 136.144 456.216 135.928 455.532 135.496C454.848 135.052 454.35 134.5 454.038 133.84V140.644H452.796V126.172H454.038V128.332ZM461.346 131.068C461.346 130.252 461.184 129.55 460.86 128.962C460.548 128.362 460.116 127.906 459.564 127.594C459.012 127.282 458.388 127.126 457.692 127.126C457.02 127.126 456.402 127.288 455.838 127.612C455.286 127.936 454.848 128.398 454.524 128.998C454.2 129.598 454.038 130.294 454.038 131.086C454.038 131.878 454.2 132.574 454.524 133.174C454.848 133.774 455.286 134.236 455.838 134.56C456.402 134.884 457.02 135.046 457.692 135.046C458.388 135.046 459.012 134.89 459.564 134.578C460.116 134.254 460.548 133.792 460.86 133.192C461.184 132.58 461.346 131.872 461.346 131.068ZM466.185 128.332C466.497 127.672 466.989 127.126 467.661 126.694C468.345 126.25 469.155 126.028 470.091 126.028C470.979 126.028 471.777 126.238 472.485 126.658C473.205 127.066 473.763 127.654 474.159 128.422C474.567 129.178 474.771 130.06 474.771 131.068C474.771 132.076 474.567 132.964 474.159 133.732C473.763 134.5 473.205 135.094 472.485 135.514C471.777 135.934 470.979 136.144 470.091 136.144C469.167 136.144 468.363 135.928 467.679 135.496C466.995 135.052 466.497 134.5 466.185 133.84V140.644H464.943V126.172H466.185V128.332ZM473.493 131.068C473.493 130.252 473.331 129.55 473.007 128.962C472.695 128.362 472.263 127.906 471.711 127.594C471.159 127.282 470.535 127.126 469.839 127.126C469.167 127.126 468.549 127.288 467.985 127.612C467.433 127.936 466.995 128.398 466.671 128.998C466.347 129.598 466.185 130.294 466.185 131.086C466.185 131.878 466.347 132.574 466.671 133.174C466.995 133.774 467.433 134.236 467.985 134.56C468.549 134.884 469.167 135.046 469.839 135.046C470.535 135.046 471.159 134.89 471.711 134.578C472.263 134.254 472.695 133.792 473.007 133.192C473.331 132.58 473.493 131.872 473.493 131.068ZM485.845 136.126C485.017 136.126 484.285 135.982 483.649 135.694C483.025 135.406 482.533 135.004 482.173 134.488C481.813 133.972 481.621 133.396 481.597 132.76H482.929C482.989 133.372 483.259 133.912 483.739 134.38C484.219 134.836 484.921 135.064 485.845 135.064C486.697 135.064 487.369 134.848 487.861 134.416C488.365 133.972 488.617 133.414 488.617 132.742C488.617 132.202 488.479 131.77 488.203 131.446C487.927 131.11 487.585 130.864 487.177 130.708C486.769 130.54 486.205 130.36 485.485 130.168C484.645 129.94 483.979 129.718 483.487 129.502C482.995 129.286 482.575 128.95 482.227 128.494C481.879 128.038 481.705 127.42 481.705 126.64C481.705 125.992 481.873 125.416 482.209 124.912C482.545 124.396 483.019 123.994 483.631 123.706C484.243 123.418 484.945 123.274 485.737 123.274C486.901 123.274 487.837 123.562 488.545 124.138C489.265 124.702 489.679 125.434 489.787 126.334H488.419C488.335 125.818 488.053 125.362 487.573 124.966C487.093 124.558 486.445 124.354 485.629 124.354C484.873 124.354 484.243 124.558 483.739 124.966C483.235 125.362 482.983 125.908 482.983 126.604C482.983 127.132 483.121 127.558 483.397 127.882C483.673 128.206 484.015 128.452 484.423 128.62C484.843 128.788 485.407 128.968 486.115 129.16C486.931 129.388 487.591 129.616 488.095 129.844C488.599 130.06 489.025 130.396 489.373 130.852C489.721 131.308 489.895 131.92 489.895 132.688C489.895 133.276 489.739 133.834 489.427 134.362C489.115 134.89 488.653 135.316 488.041 135.64C487.429 135.964 486.697 136.126 485.845 136.126ZM493.968 127.234V133.336C493.968 133.936 494.082 134.35 494.31 134.578C494.538 134.806 494.94 134.92 495.516 134.92H496.668V136H495.318C494.43 136 493.77 135.796 493.338 135.388C492.906 134.968 492.69 134.284 492.69 133.336V127.234H491.322V126.172H492.69V123.706H493.968V126.172H496.668V127.234H493.968ZM503.048 136.144C502.124 136.144 501.29 135.94 500.546 135.532C499.814 135.112 499.232 134.524 498.8 133.768C498.38 133 498.17 132.106 498.17 131.086C498.17 130.066 498.386 129.178 498.818 128.422C499.25 127.654 499.838 127.066 500.582 126.658C501.326 126.238 502.16 126.028 503.084 126.028C504.008 126.028 504.842 126.238 505.586 126.658C506.342 127.066 506.93 127.654 507.35 128.422C507.782 129.178 507.998 130.066 507.998 131.086C507.998 132.094 507.782 132.982 507.35 133.75C506.918 134.518 506.324 135.112 505.568 135.532C504.812 135.94 503.972 136.144 503.048 136.144ZM503.048 135.046C503.696 135.046 504.296 134.902 504.848 134.614C505.4 134.314 505.844 133.87 506.18 133.282C506.528 132.682 506.702 131.95 506.702 131.086C506.702 130.222 506.534 129.496 506.198 128.908C505.862 128.308 505.418 127.864 504.866 127.576C504.314 127.276 503.714 127.126 503.066 127.126C502.418 127.126 501.818 127.276 501.266 127.576C500.714 127.864 500.27 128.308 499.934 128.908C499.61 129.496 499.448 130.222 499.448 131.086C499.448 131.95 499.61 132.682 499.934 133.282C500.27 133.87 500.708 134.314 501.248 134.614C501.8 134.902 502.4 135.046 503.048 135.046ZM511.554 127.918C511.83 127.306 512.25 126.832 512.814 126.496C513.39 126.16 514.092 125.992 514.92 125.992V127.306H514.578C513.666 127.306 512.934 127.552 512.382 128.044C511.83 128.536 511.554 129.358 511.554 130.51V136H510.294V126.172H511.554V127.918ZM525.708 130.582C525.708 131.014 525.696 131.344 525.672 131.572H517.518C517.554 132.316 517.734 132.952 518.058 133.48C518.382 134.008 518.808 134.41 519.336 134.686C519.864 134.95 520.44 135.082 521.064 135.082C521.88 135.082 522.564 134.884 523.116 134.488C523.68 134.092 524.052 133.558 524.232 132.886H525.564C525.324 133.846 524.808 134.632 524.016 135.244C523.236 135.844 522.252 136.144 521.064 136.144C520.14 136.144 519.312 135.94 518.58 135.532C517.848 135.112 517.272 134.524 516.852 133.768C516.444 133 516.24 132.106 516.24 131.086C516.24 130.066 516.444 129.172 516.852 128.404C517.26 127.636 517.83 127.048 518.562 126.64C519.294 126.232 520.128 126.028 521.064 126.028C522 126.028 522.816 126.232 523.512 126.64C524.22 127.048 524.76 127.6 525.132 128.296C525.516 128.98 525.708 129.742 525.708 130.582ZM524.43 130.546C524.442 129.814 524.292 129.19 523.98 128.674C523.68 128.158 523.266 127.768 522.738 127.504C522.21 127.24 521.634 127.108 521.01 127.108C520.074 127.108 519.276 127.408 518.616 128.008C517.956 128.608 517.59 129.454 517.518 130.546H524.43ZM539.055 128.8V129.862H532.053V128.8H539.055ZM547.856 124.318C547.604 124.318 547.388 124.228 547.208 124.048C547.028 123.868 546.938 123.646 546.938 123.382C546.938 123.118 547.028 122.902 547.208 122.734C547.388 122.554 547.604 122.464 547.856 122.464C548.108 122.464 548.324 122.554 548.504 122.734C548.684 122.902 548.774 123.118 548.774 123.382C548.774 123.646 548.684 123.868 548.504 124.048C548.324 124.228 548.108 124.318 547.856 124.318ZM548.486 126.172V136H547.226V126.172H548.486ZM556.991 136.126C555.827 136.126 554.771 135.856 553.823 135.316C552.875 134.764 552.125 134.002 551.573 133.03C551.033 132.046 550.763 130.936 550.763 129.7C550.763 128.464 551.033 127.36 551.573 126.388C552.125 125.404 552.875 124.642 553.823 124.102C554.771 123.55 555.827 123.274 556.991 123.274C558.167 123.274 559.229 123.55 560.177 124.102C561.125 124.642 561.869 125.404 562.409 126.388C562.949 127.36 563.219 128.464 563.219 129.7C563.219 130.936 562.949 132.046 562.409 133.03C561.869 134.002 561.125 134.764 560.177 135.316C559.229 135.856 558.167 136.126 556.991 136.126ZM556.991 135.028C557.927 135.028 558.767 134.812 559.511 134.38C560.255 133.948 560.843 133.33 561.275 132.526C561.707 131.71 561.923 130.768 561.923 129.7C561.923 128.632 561.707 127.696 561.275 126.892C560.843 126.088 560.255 125.47 559.511 125.038C558.767 124.606 557.927 124.39 556.991 124.39C556.055 124.39 555.215 124.606 554.471 125.038C553.727 125.47 553.139 126.088 552.707 126.892C552.275 127.696 552.059 128.632 552.059 129.7C552.059 130.768 552.275 131.71 552.707 132.526C553.139 133.33 553.727 133.948 554.471 134.38C555.215 134.812 556.055 135.028 556.991 135.028ZM569.341 136.126C568.513 136.126 567.781 135.982 567.145 135.694C566.521 135.406 566.029 135.004 565.669 134.488C565.309 133.972 565.117 133.396 565.093 132.76H566.425C566.485 133.372 566.755 133.912 567.235 134.38C567.715 134.836 568.417 135.064 569.341 135.064C570.193 135.064 570.865 134.848 571.357 134.416C571.861 133.972 572.113 133.414 572.113 132.742C572.113 132.202 571.975 131.77 571.699 131.446C571.423 131.11 571.081 130.864 570.673 130.708C570.265 130.54 569.701 130.36 568.981 130.168C568.141 129.94 567.475 129.718 566.983 129.502C566.491 129.286 566.071 128.95 565.723 128.494C565.375 128.038 565.201 127.42 565.201 126.64C565.201 125.992 565.369 125.416 565.705 124.912C566.041 124.396 566.515 123.994 567.127 123.706C567.739 123.418 568.441 123.274 569.233 123.274C570.397 123.274 571.333 123.562 572.041 124.138C572.761 124.702 573.175 125.434 573.283 126.334H571.915C571.831 125.818 571.549 125.362 571.069 124.966C570.589 124.558 569.941 124.354 569.125 124.354C568.369 124.354 567.739 124.558 567.235 124.966C566.731 125.362 566.479 125.908 566.479 126.604C566.479 127.132 566.617 127.558 566.893 127.882C567.169 128.206 567.511 128.452 567.919 128.62C568.339 128.788 568.903 128.968 569.611 129.16C570.427 129.388 571.087 129.616 571.591 129.844C572.095 130.06 572.521 130.396 572.869 130.852C573.217 131.308 573.391 131.92 573.391 132.688C573.391 133.276 573.235 133.834 572.923 134.362C572.611 134.89 572.149 135.316 571.537 135.64C570.925 135.964 570.193 136.126 569.341 136.126Z" fill="black"/>
</svg>
