<svg width="366" height="366" viewBox="0 0 366 366" fill="none" xmlns="http://www.w3.org/2000/svg">
<g clip-path="url(#clip0)">
<rect x="81.4922" width="200.156" height="366" rx="98" fill="white"/>
<path d="M240.188 11.4375L125.812 11.4375C106.862 11.4375 91.5 26.7997 91.5 45.75L91.5 320.25C91.5 339.2 106.862 354.562 125.813 354.562L240.188 354.562C259.138 354.562 274.5 339.2 274.5 320.25L274.5 45.75C274.5 26.7997 259.138 11.4375 240.188 11.4375Z" stroke="black" stroke-width="32" stroke-linecap="round" stroke-linejoin="round"/>
<path d="M125.812 11.4375L142.969 11.4375C144.485 11.4375 145.94 12.04 147.013 13.1125C148.085 14.185 148.688 15.6395 148.688 17.1562C148.688 20.1897 149.893 23.0988 152.037 25.2438C154.182 27.3887 157.092 28.5937 160.125 28.5937L205.875 28.5937C208.908 28.5937 211.818 27.3887 213.963 25.2438C216.107 23.0988 217.313 20.1897 217.313 17.1562C217.313 15.6395 217.915 14.185 218.987 13.1125C220.06 12.04 221.515 11.4375 223.031 11.4375L240.188 11.4375" stroke="black" stroke-width="32" stroke-linecap="round" stroke-linejoin="round"/>
<g clip-path="url(#clip1)">
<path d="M181.213 88.797C190.929 88.797 198.805 80.9209 198.805 71.2051C198.805 61.4894 190.929 53.6133 181.213 53.6133C171.497 53.6133 163.621 61.4894 163.621 71.2051C163.621 80.9209 171.497 88.797 181.213 88.797Z" fill="black"/>
<path d="M196.292 93.8232L166.134 93.8232C160.807 93.839 155.702 95.9622 151.935 99.7292C148.168 103.496 146.045 108.601 146.029 113.928L146.029 147.705C146.029 151.113 148.677 154.013 152.083 154.135C152.927 154.166 153.768 154.026 154.557 153.725C155.345 153.423 156.065 152.965 156.673 152.379C157.281 151.793 157.764 151.09 158.095 150.313C158.425 149.536 158.595 148.7 158.595 147.855L158.595 116.526C158.587 115.878 158.824 115.25 159.259 114.77C159.695 114.289 160.295 113.991 160.941 113.935C161.285 113.912 161.63 113.96 161.954 114.076C162.279 114.192 162.576 114.373 162.827 114.609C163.078 114.845 163.279 115.13 163.415 115.446C163.552 115.762 163.622 116.103 163.621 116.448L163.621 207.228C163.621 209.144 164.382 210.982 165.737 212.337C167.092 213.692 168.93 214.453 170.846 214.453C172.763 214.453 174.6 213.692 175.955 212.337C177.31 210.982 178.071 209.144 178.071 207.228L178.071 162.413C178.06 161.601 178.356 160.816 178.9 160.214C179.443 159.611 180.194 159.236 181.002 159.164C181.432 159.136 181.864 159.195 182.269 159.34C182.675 159.485 183.047 159.712 183.361 160.007C183.675 160.301 183.926 160.657 184.097 161.053C184.268 161.449 184.355 161.875 184.354 162.306L184.354 207.228C184.354 209.144 185.116 210.982 186.471 212.337C187.826 213.692 189.663 214.453 191.58 214.453C193.496 214.453 195.334 213.692 196.689 212.337C198.044 210.982 198.805 209.144 198.805 207.228L198.805 116.526C198.797 115.878 199.034 115.25 199.469 114.77C199.905 114.289 200.505 113.991 201.151 113.935C201.495 113.912 201.84 113.96 202.164 114.076C202.489 114.192 202.786 114.373 203.037 114.609C203.288 114.845 203.489 115.13 203.625 115.446C203.762 115.762 203.832 116.103 203.831 116.448L203.831 147.711C203.831 151.119 206.479 154.019 209.884 154.141C210.729 154.172 211.571 154.032 212.36 153.73C213.149 153.428 213.869 152.97 214.477 152.383C215.085 151.796 215.569 151.093 215.898 150.315C216.228 149.537 216.398 148.7 216.397 147.855L216.397 113.928C216.381 108.601 214.258 103.496 210.491 99.7292C206.724 95.9622 201.619 93.839 196.292 93.8232Z" fill="black"/>
</g>
<g clip-path="url(#clip2)">
<path d="M129.61 270.3L129.61 327.331C129.61 327.74 129.804 328.132 130.15 328.421C130.496 328.71 130.964 328.873 131.453 328.873L162.783 328.873L162.783 270.3C162.783 269.483 162.395 268.699 161.704 268.12C161.013 267.542 160.075 267.218 159.097 267.218L133.296 267.218C132.318 267.218 131.381 267.542 130.69 268.12C129.998 268.699 129.61 269.483 129.61 270.3V270.3ZM195.957 248.721L166.469 248.721C165.492 248.721 164.554 249.046 163.863 249.624C163.172 250.202 162.783 250.986 162.783 251.804L162.783 328.873L199.642 328.873L199.642 251.804C199.642 250.986 199.254 250.202 198.563 249.624C197.872 249.046 196.934 248.721 195.957 248.721V248.721ZM229.13 279.549L203.328 279.549C202.351 279.549 201.413 279.873 200.722 280.452C200.031 281.03 199.642 281.814 199.642 282.631L199.642 328.873L230.973 328.873C231.462 328.873 231.93 328.71 232.276 328.421C232.622 328.132 232.816 327.74 232.816 327.331L232.816 282.631C232.816 281.814 232.427 281.03 231.736 280.452C231.045 279.873 230.107 279.549 229.13 279.549Z" stroke="black" stroke-width="32" stroke-linecap="round" stroke-linejoin="round"/>
<rect x="140.824" y="278.074" width="10.7227" height="39.3164" fill="#3FF921"/>
<rect x="173.707" y="260.203" width="15.0117" height="57.1875" fill="#F9F13B"/>
<rect x="210.879" y="290.227" width="10.7227" height="27.1641" fill="#FF0202"/>
</g>
</g>
<defs>
<clipPath id="clip0">
<rect width="366" height="366" fill="white"/>
</clipPath>
<clipPath id="clip1">
<rect width="160.84" height="160.84" fill="white" transform="translate(100.793 53.6133)"/>
</clipPath>
<clipPath id="clip2">
<rect width="117.949" height="98.6484" fill="white" transform="translate(122.238 239.473)"/>
</clipPath>
</defs>
</svg>
