<svg width="35" height="30" viewBox="0 0 35 30" fill="none" xmlns="http://www.w3.org/2000/svg">
<path d="M10.0387 23.9106C7.5987 25.7224 4.69404 26.6952 1.71354 26.6874M10.0387 23.9106L1.71224 27.1874C1.71241 27.1874 1.71258 27.1874 1.71275 27.1874C1.79077 27.1876 1.86873 27.1872 1.94664 27.1861M10.0387 23.9106C10.2314 23.9296 10.4262 23.9412 10.6228 23.9452L10.6327 23.4453L10.3144 23.0597C10.177 23.1732 10.0378 23.2837 9.89707 23.3913C7.26704 23.0559 5.0722 21.2266 4.10819 18.732M10.0387 23.9106L4.10819 18.732M1.71354 26.6874C1.49557 26.6871 1.27768 26.6816 1.06002 26.6709C1.27551 26.8038 1.49307 26.9323 1.71258 27.0561L1.71354 26.6874ZM1.71354 26.6874L1.71295 27.0563C1.79061 27.1002 1.86851 27.1434 1.94664 27.1861M1.94664 27.1861C4.74079 28.7123 7.83983 29.5091 10.99 29.4999L10.9915 29.4999C23.8595 29.4999 30.9402 18.2721 30.9402 8.45311C30.9402 8.13304 30.9324 7.81252 30.9181 7.49929L30.9062 7.23764L31.1145 7.07888C32.0356 6.37689 32.873 5.55837 33.609 4.64196M1.94664 27.1861C5.21011 27.1403 8.37008 25.962 10.9511 23.8308L11.991 22.9721L10.6426 22.9454C8.00253 22.8929 5.71672 21.2198 4.67734 18.8037M33.609 4.64196L5.27049 18.8281M33.609 4.64196C32.7393 4.92791 31.8461 5.13032 30.9399 5.24598L30.6108 4.32645C31.6213 3.6925 32.4535 2.78384 33.0276 1.6985C31.9284 2.24269 30.7691 2.64277 29.575 2.8882L29.2927 2.94624L29.101 2.73098C28.4692 2.02158 27.7114 1.45941 26.8747 1.07669C26.0381 0.694023 25.1391 0.498216 24.2319 0.500012L24.2309 0.500014C20.5638 0.500013 17.5516 3.64126 17.5516 7.5703V7.57272C17.5489 8.11689 17.6071 8.6593 17.7248 9.18826L17.8674 9.82917L17.2117 9.79623C14.2915 9.64955 11.4334 8.85142 8.82049 7.45441C6.43689 6.18 4.30594 4.43325 2.53872 2.31113C2.15888 3.21116 1.95953 4.19149 1.95833 5.18777C1.95842 7.6492 3.15686 9.81725 4.95458 11.0834L6.30427 12.034L4.65396 11.992C3.71783 11.9682 2.79739 11.7605 1.93777 11.3829C2.24366 14.4906 4.44846 16.9764 7.26552 17.5733L7.29919 18.5432C6.63802 18.7321 5.95629 18.8279 5.27135 18.8281L33.609 4.64196ZM4.67734 18.8037C4.87453 18.8203 5.07241 18.8284 5.27049 18.8281M4.67734 18.8037C4.48684 18.7876 4.29698 18.7637 4.10819 18.732M4.67734 18.8037C4.60384 18.6328 4.53656 18.4582 4.47584 18.2803C4.73946 18.3126 5.00476 18.3286 5.27042 18.3281L5.27049 18.8281M5.27049 18.8281L4.10819 18.732M0.906883 27.1634C3.97559 29.0293 7.45089 30.0102 10.9915 29.9999C24.2156 29.9999 31.4402 18.4609 31.4402 8.45311C31.4402 8.12499 31.4322 7.79686 31.4176 7.47655C32.5783 6.59196 33.6094 5.52966 34.4786 4.32502L0.906883 27.1634Z" fill="white" stroke="black"/>
</svg>
