<svg width="76" height="61" viewBox="0 0 76 61" fill="none" xmlns="http://www.w3.org/2000/svg">
<path d="M76 7.22787C73.1491 8.47066 70.1328 9.28944 67.0462 9.65833C70.29 7.75269 72.7293 4.72523 73.9068 1.14377C70.8401 2.94294 67.4905 4.20531 64.0015 4.87683C62.5323 3.33203 60.7654 2.1031 58.8081 1.26473C56.8508 0.426367 54.744 -0.00391944 52.6157 2.6901e-05C43.9992 2.6901e-05 37.0262 6.89428 37.0262 15.3929C37.0201 16.5751 37.1552 17.7537 37.4284 18.9036C31.2498 18.613 25.1996 17.0317 19.665 14.2607C14.1304 11.4898 9.23318 7.59031 5.28675 2.81174C3.90224 5.15343 3.17004 7.82523 3.16667 10.5479C3.16667 15.8854 5.94225 20.6033 10.1333 23.3674C7.65024 23.3083 5.21802 22.6489 3.04317 21.4453V21.6359C3.04317 29.102 8.4265 35.3132 15.5515 36.727C14.2117 37.0853 12.831 37.2669 11.4443 37.2671C10.4604 37.2688 9.47873 37.173 8.51358 36.9812C10.4943 43.097 16.2593 47.5449 23.0882 47.672C17.5392 51.9625 10.7265 54.2815 3.72083 54.2644C2.47731 54.2626 1.23495 54.1883 0 54.0421C7.12687 58.6079 15.4113 61.0229 23.8672 60.9998C52.5825 60.9998 68.2702 37.5372 68.2702 17.188C68.2702 16.5208 68.2527 15.8536 68.2211 15.2023C71.266 13.0293 73.9002 10.3289 76 7.22787Z" fill="white"/>
</svg>
