<svg width="603" height="53" viewBox="0 0 603 53" fill="none" xmlns="http://www.w3.org/2000/svg">
<rect x="0.5" y="0.5" width="602" height="52" rx="26" fill="white" stroke="black"/>
<path d="M293.704 20.418L290.14 33H288.736L285.568 22.272L282.328 33L280.96 33.018L277.468 20.418H278.818L281.698 31.452L284.92 20.418H286.324L289.456 31.452L292.354 20.418H293.704ZM303.731 23.172L297.899 37.626H296.585L298.493 32.946L294.461 23.172H295.847L299.195 31.56L302.435 23.172H303.731ZM308.824 33.144C307.696 33.144 306.772 32.886 306.052 32.37C305.344 31.842 304.948 31.128 304.864 30.228H306.16C306.22 30.78 306.478 31.23 306.934 31.578C307.402 31.914 308.026 32.082 308.806 32.082C309.49 32.082 310.024 31.92 310.408 31.596C310.804 31.272 311.002 30.87 311.002 30.39C311.002 30.054 310.894 29.778 310.678 29.562C310.462 29.346 310.186 29.178 309.85 29.058C309.526 28.926 309.082 28.788 308.518 28.644C307.786 28.452 307.192 28.26 306.736 28.068C306.28 27.876 305.89 27.594 305.566 27.222C305.254 26.838 305.098 26.328 305.098 25.692C305.098 25.212 305.242 24.768 305.53 24.36C305.818 23.952 306.226 23.628 306.754 23.388C307.282 23.148 307.882 23.028 308.554 23.028C309.61 23.028 310.462 23.298 311.11 23.838C311.758 24.366 312.106 25.098 312.154 26.034H310.894C310.858 25.458 310.63 24.996 310.21 24.648C309.802 24.288 309.238 24.108 308.518 24.108C307.882 24.108 307.366 24.258 306.97 24.558C306.574 24.858 306.376 25.23 306.376 25.674C306.376 26.058 306.49 26.376 306.718 26.628C306.958 26.868 307.252 27.06 307.6 27.204C307.948 27.336 308.416 27.486 309.004 27.654C309.712 27.846 310.276 28.032 310.696 28.212C311.116 28.392 311.476 28.656 311.776 29.004C312.076 29.352 312.232 29.814 312.244 30.39C312.244 30.918 312.1 31.392 311.812 31.812C311.524 32.22 311.122 32.544 310.606 32.784C310.09 33.024 309.496 33.144 308.824 33.144ZM310.264 20.184L306.574 22.326V21.354L310.264 19.05V20.184ZM315.876 19.68V33H314.616V19.68H315.876ZM319.359 21.318C319.107 21.318 318.891 21.228 318.711 21.048C318.531 20.868 318.441 20.646 318.441 20.382C318.441 20.118 318.531 19.902 318.711 19.734C318.891 19.554 319.107 19.464 319.359 19.464C319.611 19.464 319.827 19.554 320.007 19.734C320.187 19.902 320.277 20.118 320.277 20.382C320.277 20.646 320.187 20.868 320.007 21.048C319.827 21.228 319.611 21.318 319.359 21.318ZM319.989 23.172V33H318.729V23.172H319.989ZM323.562 21.318C323.31 21.318 323.094 21.228 322.914 21.048C322.734 20.868 322.644 20.646 322.644 20.382C322.644 20.118 322.734 19.902 322.914 19.734C323.094 19.554 323.31 19.464 323.562 19.464C323.814 19.464 324.024 19.554 324.192 19.734C324.372 19.902 324.462 20.118 324.462 20.382C324.462 20.646 324.372 20.868 324.192 21.048C324.024 21.228 323.814 21.318 323.562 21.318ZM324.174 35.322C324.174 36.114 323.976 36.696 323.58 37.068C323.184 37.452 322.59 37.644 321.798 37.644H320.916V36.564H321.6C322.068 36.564 322.404 36.462 322.608 36.258C322.812 36.066 322.914 35.736 322.914 35.268V23.172H324.174V35.322Z" fill="black"/>
</svg>
