<svg width="80" height="80" viewBox="0 0 80 80" fill="none" xmlns="http://www.w3.org/2000/svg">
<g clip-path="url(#clip0)">
<path d="M79.475 23.2484C79.475 16.2172 74.3031 10.5609 67.9125 10.5609C59.2562 10.1562 50.4281 10 41.4062 10H38.5937C29.5937 10 20.75 10.1562 12.0937 10.5625C5.71872 10.5625 0.546849 16.25 0.546849 23.2812C0.156224 28.8422 -0.00940139 34.4047 -2.63939e-05 39.9672C-0.0156514 45.5297 0.161432 51.0974 0.531224 56.6703C0.531224 63.7016 5.7031 69.4047 12.0781 69.4047C21.1718 69.8266 30.5 70.0141 39.9843 69.9984C49.4843 70.0297 58.7864 69.8318 67.8906 69.4047C74.2812 69.4047 79.4531 63.7016 79.4531 56.6703C79.8281 51.0922 80 45.5297 79.9843 39.9516C80.0198 34.3891 79.85 28.8214 79.475 23.2484ZM32.3437 55.2953V24.5922L55 39.9359L32.3437 55.2953Z" fill="#F1F2F6"/>
</g>
<defs>
<clipPath id="clip0">
<rect width="80" height="80" fill="white"/>
</clipPath>
</defs>
</svg>
