<svg width="49" height="37" viewBox="0 0 49 37" fill="none" xmlns="http://www.w3.org/2000/svg">
<path d="M48.6852 8.16965C48.6852 3.83383 45.517 0.345902 41.6022 0.345902C36.2996 0.0963512 30.8917 0 25.3651 0H23.6422C18.129 0 12.7116 0.0963514 7.40894 0.346865C3.50376 0.346865 0.335585 3.85406 0.335585 8.18988C0.0962972 11.619 -0.00516086 15.0491 0.000582052 18.4793C-0.00898947 21.9094 0.0994878 25.3427 0.326014 28.7792C0.326014 33.1151 3.49419 36.6319 7.39937 36.6319C12.97 36.892 18.6842 37.0077 24.4941 36.998C30.3136 37.0173 36.0118 36.8953 41.5888 36.6319C45.5036 36.6319 48.6718 33.1151 48.6718 28.7792C48.9015 25.3395 49.0068 21.9094 48.9972 18.4696C49.0189 15.0395 48.9149 11.6062 48.6852 8.16965ZM19.8136 27.9314V8.99827L33.6923 18.46L19.8136 27.9314Z" fill="#EA212A"/>
</svg>
